<?xml version="1.0" encoding="UTF-8" standalone="no"?>
<!-- Generator: Adobe Illustrator 29.5.1, SVG Export Plug-In . SVG Version: 9.03 Build 0)  -->

<svg
   version="1.1"
   id="Layer_1"
   x="0px"
   y="0px"
   viewBox="0 0 1672.44 822.05"
   xml:space="preserve"
   sodipodi:docname="carbox_runG.svg"
   inkscape:version="1.3.2 (091e20e, 2023-11-25)"
   xmlns:inkscape="http://www.inkscape.org/namespaces/inkscape"
   xmlns:sodipodi="http://sodipodi.sourceforge.net/DTD/sodipodi-0.dtd"
   xmlns="http://www.w3.org/2000/svg"
   xmlns:svg="http://www.w3.org/2000/svg"><defs
   id="defs3" />
<sodipodi:namedview
   bordercolor="#000000"
   borderopacity="0.25"
   id="namedview335"
   inkscape:current-layer="Layer_1"
   inkscape:cx="603.1998"
   inkscape:cy="153.58681"
   inkscape:deskcolor="#d1d1d1"
   inkscape:pagecheckerboard="0"
   inkscape:pageopacity="0.0"
   inkscape:showpageshadow="2"
   inkscape:window-height="965"
   inkscape:window-maximized="0"
   inkscape:window-width="1728"
   inkscape:window-x="0"
   inkscape:window-y="38"
   inkscape:zoom="0.80736101"
   pagecolor="#ffffff">
	</sodipodi:namedview>
<rect
   id="rect1"
   x="343.21"
   y="95.19"
   fill="#FFFFFF"
   stroke="#FF0000"
   stroke-width="0.0133"
   stroke-miterlimit="10"
   width="196.64"
   height="19.09" />
<circle
   id="circle1"
   fill="#00FF00"
   cx="526.59"
   cy="50.35"
   r="5.67" />
<circle
   id="circle2"
   fill="#00FF00"
   cx="356.45"
   cy="50.35"
   r="5.67" />
<circle
   id="circle3"
   fill="#00FF00"
   cx="441.53"
   cy="50.35"
   r="5.67" />
<circle
   id="circle4"
   fill="#00FF00"
   cx="526.59"
   cy="159.13"
   r="5.67" />
<circle
   id="circle5"
   fill="#00FF00"
   cx="356.45"
   cy="159.13"
   r="5.67" />
<circle
   id="circle6"
   fill="#00FF00"
   cx="441.53"
   cy="159.13"
   r="5.67" />
<rect
   id="rect10"
   x="343.21"
   y="99.47"
   fill="none"
   stroke="#FF0000"
   stroke-width="0.0133"
   stroke-miterlimit="10"
   width="196.64"
   height="18.9" />
<rect
   id="rect11"
   x="343.21"
   y="91.6"
   fill="#FFFFFF"
   stroke="#FF0000"
   stroke-width="0.0133"
   stroke-miterlimit="10"
   width="196.64"
   height="20.58" />
<rect
   id="rect26"
   x="308.98"
   y="253.32"
   fill="none"
   stroke="#FF0000"
   stroke-width="0.0133"
   stroke-linecap="round"
   stroke-miterlimit="11.3386"
   width="22.61"
   height="22.61" />
<rect
   id="rect27"
   x="386.41"
   y="253.32"
   fill="none"
   stroke="#FF0000"
   stroke-width="0.0133"
   stroke-linecap="round"
   stroke-miterlimit="11.3386"
   width="30.44"
   height="11.34" />
<rect
   id="rect28"
   x="439.12"
   y="253.32"
   fill="none"
   stroke="#FF0000"
   stroke-width="0.0133"
   stroke-linecap="round"
   stroke-miterlimit="11.3386"
   width="30.32"
   height="11.34" />
<rect
   id="rect29"
   x="337.35"
   y="253.39"
   fill="none"
   stroke="#FF0000"
   stroke-width="0.0133"
   stroke-linecap="round"
   stroke-miterlimit="11.3386"
   width="30.44"
   height="20.04" />
<rect
   id="rect30"
   x="488.1"
   y="253.39"
   fill="none"
   stroke="#FF0000"
   stroke-width="0.0133"
   stroke-linecap="round"
   stroke-miterlimit="11.3386"
   width="30.44"
   height="20.04" />
<polygon
   id="polygon33"
   fill="none"
   stroke="#FF0000"
   stroke-width="0.0133"
   stroke-miterlimit="13.3409"
   points="49.6,204.88   49.6,303.2 79.78,303.2 79.78,314.56 151.72,314.56 151.72,193.54 79.78,193.54 79.78,204.88 " />
<ellipse
   id="ellipse33"
   fill="none"
   stroke="#FF0000"
   stroke-width="0.0133"
   stroke-miterlimit="11.3386"
   cx="121.93"
   cy="289.5"
   rx="18.9"
   ry="1.89" />
<ellipse
   id="ellipse34"
   fill="none"
   stroke="#FF0000"
   stroke-width="0.0133"
   stroke-miterlimit="11.3386"
   cx="121.93"
   cy="279.36"
   rx="18.9"
   ry="1.89" />
<ellipse
   id="ellipse35"
   fill="none"
   stroke="#FF0000"
   stroke-width="0.0133"
   stroke-miterlimit="11.3386"
   cx="121.93"
   cy="269.24"
   rx="18.9"
   ry="1.89" />
<ellipse
   id="ellipse36"
   fill="none"
   stroke="#FF0000"
   stroke-width="0.0133"
   stroke-miterlimit="11.3386"
   cx="121.93"
   cy="259.11"
   rx="18.9"
   ry="1.89" />
<ellipse
   id="ellipse37"
   fill="none"
   stroke="#FF0000"
   stroke-width="0.0133"
   stroke-miterlimit="11.3386"
   cx="121.93"
   cy="248.99"
   rx="18.9"
   ry="1.89" />
<ellipse
   id="ellipse38"
   fill="none"
   stroke="#FF0000"
   stroke-width="0.0133"
   stroke-miterlimit="11.3386"
   cx="121.93"
   cy="238.85"
   rx="18.9"
   ry="1.89" />
<ellipse
   id="ellipse39"
   fill="none"
   stroke="#FF0000"
   stroke-width="0.0133"
   stroke-miterlimit="11.3386"
   cx="121.93"
   cy="228.72"
   rx="18.9"
   ry="1.89" />
<ellipse
   id="ellipse40"
   fill="none"
   stroke="#FF0000"
   stroke-width="0.0133"
   stroke-miterlimit="11.3386"
   cx="121.93"
   cy="218.59"
   rx="18.9"
   ry="1.89" />
<ellipse
   id="ellipse41"
   fill="none"
   stroke="#FF0000"
   stroke-width="0.0133"
   stroke-miterlimit="11.3386"
   cx="65.11"
   cy="274.69"
   rx="1.89"
   ry="18.9" />
<ellipse
   id="ellipse42"
   fill="none"
   stroke="#FF0000"
   stroke-width="0.0133"
   stroke-miterlimit="11.3386"
   cx="75.23"
   cy="274.69"
   rx="1.89"
   ry="18.9" />
<ellipse
   id="ellipse43"
   fill="none"
   stroke="#FF0000"
   stroke-width="0.0133"
   stroke-miterlimit="11.3386"
   cx="85.37"
   cy="274.69"
   rx="1.89"
   ry="18.9" />
<ellipse
   id="ellipse44"
   fill="none"
   stroke="#FF0000"
   stroke-width="0.0133"
   stroke-miterlimit="11.3386"
   cx="65.11"
   cy="233.39"
   rx="1.89"
   ry="18.9" />
<ellipse
   id="ellipse45"
   fill="none"
   stroke="#FF0000"
   stroke-width="0.0133"
   stroke-miterlimit="11.3386"
   cx="75.23"
   cy="233.39"
   rx="1.89"
   ry="18.9" />
<ellipse
   id="ellipse46"
   fill="none"
   stroke="#FF0000"
   stroke-width="0.0133"
   stroke-miterlimit="11.3386"
   cx="85.37"
   cy="233.39"
   rx="1.89"
   ry="18.9" />
<ellipse
   id="ellipse47"
   fill="none"
   stroke="#FF0000"
   stroke-width="0.0133"
   stroke-miterlimit="11.3386"
   cx="828.92"
   cy="104.63"
   rx="1.89"
   ry="18.9" />
<ellipse
   id="ellipse48"
   fill="none"
   stroke="#FF0000"
   stroke-width="0.0133"
   stroke-miterlimit="11.3386"
   cx="820.12"
   cy="104.63"
   rx="1.89"
   ry="18.9" />
<ellipse
   id="ellipse49"
   fill="none"
   stroke="#FF0000"
   stroke-width="0.0133"
   stroke-miterlimit="11.3386"
   cx="811.33"
   cy="104.63"
   rx="1.89"
   ry="18.9" />
<ellipse
   id="ellipse50"
   fill="none"
   stroke="#FF0000"
   stroke-width="0.0133"
   stroke-miterlimit="11.3386"
   cx="593.66"
   cy="84.17"
   rx="1.89"
   ry="18.9" />
<ellipse
   id="ellipse51"
   fill="none"
   stroke="#FF0000"
   stroke-width="0.0133"
   stroke-miterlimit="11.3386"
   cx="607"
   cy="84.17"
   rx="1.89"
   ry="18.9" />
<path
   id="ellipse52"
   fill="none"
   stroke="#FF0000"
   stroke-width="0.0133"
   stroke-miterlimit="11.3386"
   d="M764.76,80.71  c0,10.44-0.85,18.9-1.89,18.9c-1.05,0-1.89-8.46-1.89-18.9s0.85-18.9,1.89-18.9C763.91,61.81,764.76,70.27,764.76,80.71z" />
<path
   id="ellipse53"
   fill="none"
   stroke="#FF0000"
   stroke-width="0.0133"
   stroke-miterlimit="11.3386"
   d="M764.21,126.78  c0,10.44-0.85,18.9-1.89,18.9c-1.05,0-1.89-8.46-1.89-18.9s0.85-18.9,1.89-18.9C763.36,107.87,764.21,116.34,764.21,126.78z" />
<ellipse
   id="ellipse79"
   fill="none"
   stroke="#FF0000"
   stroke-width="0.0133"
   stroke-miterlimit="11.3386"
   cx="716.18"
   cy="126.78"
   rx="1.89"
   ry="18.9" />
<ellipse
   id="ellipse80"
   fill="none"
   stroke="#FF0000"
   stroke-width="0.0133"
   stroke-miterlimit="11.3386"
   cx="726.31"
   cy="126.78"
   rx="1.89"
   ry="18.9" />
<ellipse
   id="ellipse81"
   fill="none"
   stroke="#FF0000"
   stroke-width="0.0133"
   stroke-miterlimit="11.3386"
   cx="736.43"
   cy="126.78"
   rx="1.89"
   ry="18.9" />
<ellipse
   id="ellipse82"
   fill="none"
   stroke="#FF0000"
   stroke-width="0.0133"
   stroke-miterlimit="11.3386"
   cx="716.18"
   cy="82.79"
   rx="1.89"
   ry="18.9" />
<ellipse
   id="ellipse83"
   fill="none"
   stroke="#FF0000"
   stroke-width="0.0133"
   stroke-miterlimit="11.3386"
   cx="726.31"
   cy="82.79"
   rx="1.89"
   ry="18.9" />
<ellipse
   id="ellipse84"
   fill="none"
   stroke="#FF0000"
   stroke-width="0.0133"
   stroke-miterlimit="11.3386"
   cx="736.43"
   cy="82.79"
   rx="1.89"
   ry="18.9" />
<ellipse
   id="ellipse85"
   fill="none"
   stroke="#FF0000"
   stroke-width="0.0133"
   stroke-miterlimit="11.3386"
   cx="695.62"
   cy="126.78"
   rx="1.89"
   ry="18.9" />
<ellipse
   id="ellipse86"
   fill="none"
   stroke="#FF0000"
   stroke-width="0.0133"
   stroke-miterlimit="11.3386"
   cx="705.75"
   cy="126.78"
   rx="1.89"
   ry="18.9" />
<ellipse
   id="ellipse87"
   fill="none"
   stroke="#FF0000"
   stroke-width="0.0133"
   stroke-miterlimit="11.3386"
   cx="695.62"
   cy="82.79"
   rx="1.89"
   ry="18.9" />
<ellipse
   id="ellipse88"
   fill="none"
   stroke="#FF0000"
   stroke-width="0.0133"
   stroke-miterlimit="11.3386"
   cx="705.75"
   cy="82.79"
   rx="1.89"
   ry="18.9" />
<ellipse
   id="ellipse89"
   fill="none"
   stroke="#FF0000"
   stroke-width="0.0133"
   stroke-miterlimit="11.3386"
   cx="686.28"
   cy="126.78"
   rx="1.89"
   ry="18.9" />
<ellipse
   id="ellipse90"
   fill="none"
   stroke="#FF0000"
   stroke-width="0.0133"
   stroke-miterlimit="11.3386"
   cx="686.28"
   cy="82.79"
   rx="1.89"
   ry="18.9" />
<ellipse
   id="ellipse121"
   fill="none"
   stroke="#FF0000"
   stroke-width="0.0133"
   stroke-miterlimit="11.3386"
   cx="343.28"
   cy="141.25"
   rx="1.89"
   ry="6.02" />
<ellipse
   id="ellipse122"
   fill="none"
   stroke="#FF0000"
   stroke-width="0.0133"
   stroke-miterlimit="11.3386"
   cx="353.42"
   cy="141.25"
   rx="1.89"
   ry="6.02" />
<ellipse
   id="ellipse123"
   fill="none"
   stroke="#FF0000"
   stroke-width="0.0133"
   stroke-miterlimit="11.3386"
   cx="363.54"
   cy="141.25"
   rx="1.89"
   ry="6.02" />
<ellipse
   id="ellipse124"
   fill="none"
   stroke="#FF0000"
   stroke-width="0.0133"
   stroke-miterlimit="11.3386"
   cx="373.67"
   cy="141.25"
   rx="1.89"
   ry="6.02" />
<ellipse
   id="ellipse125"
   fill="none"
   stroke="#FF0000"
   stroke-width="0.0133"
   stroke-miterlimit="11.3386"
   cx="383.79"
   cy="141.25"
   rx="1.89"
   ry="6.02" />
<ellipse
   id="ellipse126"
   fill="none"
   stroke="#FF0000"
   stroke-width="0.0133"
   stroke-miterlimit="11.3386"
   cx="393.93"
   cy="141.25"
   rx="1.89"
   ry="6.02" />
<ellipse
   id="ellipse127"
   fill="none"
   stroke="#FF0000"
   stroke-width="0.0133"
   stroke-miterlimit="11.3386"
   cx="404.06"
   cy="141.25"
   rx="1.89"
   ry="6.02" />
<ellipse
   id="ellipse128"
   fill="none"
   stroke="#FF0000"
   stroke-width="0.0133"
   stroke-miterlimit="11.3386"
   cx="414.18"
   cy="141.25"
   rx="1.89"
   ry="6.02" />
<ellipse
   id="ellipse129"
   fill="none"
   stroke="#FF0000"
   stroke-width="0.0133"
   stroke-miterlimit="11.3386"
   cx="423.75"
   cy="141.25"
   rx="1.89"
   ry="6.02" />
<ellipse
   id="ellipse130"
   fill="none"
   stroke="#FF0000"
   stroke-width="0.0133"
   stroke-miterlimit="11.3386"
   cx="433.88"
   cy="141.25"
   rx="1.89"
   ry="6.02" />
<ellipse
   id="ellipse131"
   fill="none"
   stroke="#FF0000"
   stroke-width="0.0133"
   stroke-miterlimit="11.3386"
   cx="444"
   cy="141.25"
   rx="1.89"
   ry="6.02" />
<ellipse
   id="ellipse132"
   fill="none"
   stroke="#FF0000"
   stroke-width="0.0133"
   stroke-miterlimit="11.3386"
   cx="454.14"
   cy="141.25"
   rx="1.89"
   ry="6.02" />
<ellipse
   id="ellipse133"
   fill="none"
   stroke="#FF0000"
   stroke-width="0.0133"
   stroke-miterlimit="11.3386"
   cx="464.27"
   cy="141.25"
   rx="1.89"
   ry="6.02" />
<ellipse
   id="ellipse134"
   fill="none"
   stroke="#FF0000"
   stroke-width="0.0133"
   stroke-miterlimit="11.3386"
   cx="474.94"
   cy="141.25"
   rx="1.89"
   ry="6.02" />
<ellipse
   id="ellipse135"
   fill="none"
   stroke="#FF0000"
   stroke-width="0.0133"
   stroke-miterlimit="11.3386"
   cx="486.04"
   cy="141.25"
   rx="1.89"
   ry="6.02" />
<ellipse
   id="ellipse136"
   fill="none"
   stroke="#FF0000"
   stroke-width="0.0133"
   stroke-miterlimit="11.3386"
   cx="496.18"
   cy="141.25"
   rx="1.89"
   ry="6.02" />
<ellipse
   id="ellipse137"
   fill="none"
   stroke="#FF0000"
   stroke-width="0.0133"
   stroke-miterlimit="11.3386"
   cx="506.3"
   cy="141.25"
   rx="1.89"
   ry="6.02" />
<ellipse
   id="ellipse138"
   fill="none"
   stroke="#FF0000"
   stroke-width="0.0133"
   stroke-miterlimit="11.3386"
   cx="516.43"
   cy="141.25"
   rx="1.89"
   ry="6.02" />
<ellipse
   id="ellipse139"
   fill="none"
   stroke="#FF0000"
   stroke-width="0.0133"
   stroke-miterlimit="11.3386"
   cx="526.57"
   cy="141.25"
   rx="1.89"
   ry="6.02" />
<ellipse
   id="ellipse140"
   fill="none"
   stroke="#FF0000"
   stroke-width="0.0133"
   stroke-miterlimit="11.3386"
   cx="536.69"
   cy="141.25"
   rx="1.89"
   ry="6.02" />
<ellipse
   id="ellipse141"
   fill="none"
   stroke="#FF0000"
   stroke-width="0.0133"
   stroke-miterlimit="11.3386"
   cx="343.28"
   cy="72.97"
   rx="1.89"
   ry="6.74" />
<ellipse
   id="ellipse142"
   fill="none"
   stroke="#FF0000"
   stroke-width="0.0133"
   stroke-miterlimit="11.3386"
   cx="353.42"
   cy="72.97"
   rx="1.89"
   ry="6.74" />
<ellipse
   id="ellipse143"
   fill="none"
   stroke="#FF0000"
   stroke-width="0.0133"
   stroke-miterlimit="11.3386"
   cx="363.54"
   cy="72.97"
   rx="1.89"
   ry="6.74" />
<ellipse
   id="ellipse144"
   fill="none"
   stroke="#FF0000"
   stroke-width="0.0133"
   stroke-miterlimit="11.3386"
   cx="373.67"
   cy="72.97"
   rx="1.89"
   ry="6.74" />
<ellipse
   id="ellipse145"
   fill="none"
   stroke="#FF0000"
   stroke-width="0.0133"
   stroke-miterlimit="11.3386"
   cx="383.79"
   cy="72.97"
   rx="1.89"
   ry="6.74" />
<ellipse
   id="ellipse146"
   fill="none"
   stroke="#FF0000"
   stroke-width="0.0133"
   stroke-miterlimit="11.3386"
   cx="393.93"
   cy="72.97"
   rx="1.89"
   ry="6.74" />
<ellipse
   id="ellipse147"
   fill="none"
   stroke="#FF0000"
   stroke-width="0.0133"
   stroke-miterlimit="11.3386"
   cx="404.06"
   cy="72.97"
   rx="1.89"
   ry="6.74" />
<ellipse
   id="ellipse148"
   fill="none"
   stroke="#FF0000"
   stroke-width="0.0133"
   stroke-miterlimit="11.3386"
   cx="414.18"
   cy="72.97"
   rx="1.89"
   ry="6.74" />
<ellipse
   id="ellipse149"
   fill="none"
   stroke="#FF0000"
   stroke-width="0.0133"
   stroke-miterlimit="11.3386"
   cx="423.75"
   cy="72.97"
   rx="1.89"
   ry="6.74" />
<ellipse
   id="ellipse150"
   fill="none"
   stroke="#FF0000"
   stroke-width="0.0133"
   stroke-miterlimit="11.3386"
   cx="433.88"
   cy="72.97"
   rx="1.89"
   ry="6.74" />
<ellipse
   id="ellipse151"
   fill="none"
   stroke="#FF0000"
   stroke-width="0.0133"
   stroke-miterlimit="11.3386"
   cx="444"
   cy="72.97"
   rx="1.89"
   ry="6.74" />
<ellipse
   id="ellipse152"
   fill="none"
   stroke="#FF0000"
   stroke-width="0.0133"
   stroke-miterlimit="11.3386"
   cx="454.14"
   cy="72.97"
   rx="1.89"
   ry="6.74" />
<ellipse
   id="ellipse153"
   fill="none"
   stroke="#FF0000"
   stroke-width="0.0133"
   stroke-miterlimit="11.3386"
   cx="464.27"
   cy="72.97"
   rx="1.89"
   ry="6.74" />
<ellipse
   id="ellipse154"
   fill="none"
   stroke="#FF0000"
   stroke-width="0.0133"
   stroke-miterlimit="11.3386"
   cx="474.94"
   cy="72.97"
   rx="1.89"
   ry="6.74" />
<ellipse
   id="ellipse155"
   fill="none"
   stroke="#FF0000"
   stroke-width="0.0133"
   stroke-miterlimit="11.3386"
   cx="486.04"
   cy="72.97"
   rx="1.89"
   ry="6.74" />
<ellipse
   id="ellipse156"
   fill="none"
   stroke="#FF0000"
   stroke-width="0.0133"
   stroke-miterlimit="11.3386"
   cx="496.18"
   cy="72.97"
   rx="1.89"
   ry="6.74" />
<ellipse
   id="ellipse157"
   fill="none"
   stroke="#FF0000"
   stroke-width="0.0133"
   stroke-miterlimit="11.3386"
   cx="506.3"
   cy="72.97"
   rx="1.89"
   ry="6.74" />
<ellipse
   id="ellipse158"
   fill="none"
   stroke="#FF0000"
   stroke-width="0.0133"
   stroke-miterlimit="11.3386"
   cx="516.43"
   cy="72.97"
   rx="1.89"
   ry="6.74" />
<ellipse
   id="ellipse159"
   fill="none"
   stroke="#FF0000"
   stroke-width="0.0133"
   stroke-miterlimit="11.3386"
   cx="526.57"
   cy="72.97"
   rx="1.89"
   ry="6.74" />
<ellipse
   id="ellipse160"
   fill="none"
   stroke="#FF0000"
   stroke-width="0.0133"
   stroke-miterlimit="11.3386"
   cx="536.69"
   cy="72.97"
   rx="1.89"
   ry="6.74" />
<path
   id="path160"
   fill="none"
   stroke="#FF0000"
   stroke-width="0.0133"
   stroke-miterlimit="11.3386"
   d="M316.7,221.18  c0,10.45-0.85,18.9-1.89,18.9c-1.04,0-1.89-8.46-1.89-18.9c0-10.45,0.85-18.9,1.89-18.9S316.7,210.74,316.7,221.18z" />
<ellipse
   id="ellipse161"
   fill="none"
   stroke="#FF0000"
   stroke-width="0.0133"
   stroke-miterlimit="11.3386"
   cx="324.93"
   cy="221.18"
   rx="1.89"
   ry="18.9" />
<ellipse
   id="ellipse162"
   fill="none"
   stroke="#FF0000"
   stroke-width="0.0133"
   stroke-miterlimit="11.3386"
   cx="335.07"
   cy="221.18"
   rx="1.89"
   ry="18.9" />
<ellipse
   id="ellipse163"
   fill="none"
   stroke="#FF0000"
   stroke-width="0.0133"
   stroke-miterlimit="11.3386"
   cx="345.19"
   cy="221.18"
   rx="1.89"
   ry="18.9" />
<ellipse
   id="ellipse164"
   fill="none"
   stroke="#FF0000"
   stroke-width="0.0133"
   stroke-miterlimit="11.3386"
   cx="355.32"
   cy="221.18"
   rx="1.89"
   ry="18.9" />
<ellipse
   id="ellipse165"
   fill="none"
   stroke="#FF0000"
   stroke-width="0.0133"
   stroke-miterlimit="11.3386"
   cx="365.44"
   cy="221.18"
   rx="1.89"
   ry="18.9" />
<ellipse
   id="ellipse166"
   fill="none"
   stroke="#FF0000"
   stroke-width="0.0133"
   stroke-miterlimit="11.3386"
   cx="375.58"
   cy="221.18"
   rx="1.89"
   ry="18.9" />
<ellipse
   id="ellipse167"
   fill="none"
   stroke="#FF0000"
   stroke-width="0.0133"
   stroke-miterlimit="11.3386"
   cx="385.71"
   cy="221.18"
   rx="1.89"
   ry="18.9" />
<ellipse
   id="ellipse168"
   fill="none"
   stroke="#FF0000"
   stroke-width="0.0133"
   stroke-miterlimit="11.3386"
   cx="395.26"
   cy="221.18"
   rx="1.89"
   ry="18.9" />
<ellipse
   id="ellipse169"
   fill="none"
   stroke="#FF0000"
   stroke-width="0.0133"
   stroke-miterlimit="11.3386"
   cx="405.4"
   cy="221.18"
   rx="1.89"
   ry="18.9" />
<ellipse
   id="ellipse170"
   fill="none"
   stroke="#FF0000"
   stroke-width="0.0133"
   stroke-miterlimit="11.3386"
   cx="415.52"
   cy="221.18"
   rx="1.89"
   ry="18.9" />
<ellipse
   id="ellipse171"
   fill="none"
   stroke="#FF0000"
   stroke-width="0.0133"
   stroke-miterlimit="11.3386"
   cx="425.65"
   cy="221.18"
   rx="1.89"
   ry="18.9" />
<ellipse
   id="ellipse172"
   fill="none"
   stroke="#FF0000"
   stroke-width="0.0133"
   stroke-miterlimit="11.3386"
   cx="435.79"
   cy="221.18"
   rx="1.89"
   ry="18.9" />
<ellipse
   id="ellipse173"
   fill="none"
   stroke="#FF0000"
   stroke-width="0.0133"
   stroke-miterlimit="11.3386"
   cx="446.46"
   cy="221.18"
   rx="1.89"
   ry="18.9" />
<ellipse
   id="ellipse174"
   fill="none"
   stroke="#FF0000"
   stroke-width="0.0133"
   stroke-miterlimit="11.3386"
   cx="524.57"
   cy="230.55"
   rx="13.66"
   ry="1.89" />
<ellipse
   id="ellipse175"
   fill="none"
   stroke="#FF0000"
   stroke-width="0.0133"
   stroke-miterlimit="11.3386"
   cx="524.57"
   cy="241.22"
   rx="13.66"
   ry="1.89" />
<ellipse
   id="ellipse176"
   fill="none"
   stroke="#FF0000"
   stroke-width="0.0133"
   stroke-miterlimit="11.3386"
   cx="485.79"
   cy="230.55"
   rx="18.9"
   ry="1.89" />
<ellipse
   id="ellipse177"
   fill="none"
   stroke="#FF0000"
   stroke-width="0.0133"
   stroke-miterlimit="11.3386"
   cx="485.79"
   cy="241.22"
   rx="18.9"
   ry="1.89" />
<ellipse
   id="ellipse178"
   fill="none"
   stroke="#FF0000"
   stroke-width="0.0133"
   stroke-miterlimit="11.3386"
   cx="524.57"
   cy="197.2"
   rx="13.66"
   ry="1.89" />
<ellipse
   id="ellipse179"
   fill="none"
   stroke="#FF0000"
   stroke-width="0.0133"
   stroke-miterlimit="11.3386"
   cx="485.79"
   cy="197.2"
   rx="18.9"
   ry="1.89" />
<ellipse
   id="ellipse180"
   fill="none"
   stroke="#FF0000"
   stroke-width="0.0133"
   stroke-miterlimit="11.3386"
   cx="524.48"
   cy="283.91"
   rx="18.9"
   ry="1.89" />
<ellipse
   id="ellipse181"
   fill="none"
   stroke="#FF0000"
   stroke-width="0.0133"
   stroke-miterlimit="11.3386"
   cx="475.45"
   cy="283.91"
   rx="18.9"
   ry="1.89" />
<ellipse
   id="ellipse182"
   fill="none"
   stroke="#FF0000"
   stroke-width="0.0133"
   stroke-miterlimit="11.3386"
   cx="377.4"
   cy="283.91"
   rx="18.9"
   ry="1.89" />
<ellipse
   id="ellipse183"
   fill="none"
   stroke="#FF0000"
   stroke-width="0.0133"
   stroke-miterlimit="11.3386"
   cx="328.37"
   cy="283.91"
   rx="18.9"
   ry="1.89" />
<ellipse
   id="ellipse184"
   fill="none"
   stroke="#FF0000"
   stroke-width="0.0133"
   stroke-miterlimit="11.3386"
   cx="426.42"
   cy="283.91"
   rx="18.9"
   ry="1.89" />
<g
   id="g1">
	<path
   id="path202"
   fill="none"
   stroke="#FF0000"
   stroke-width="0.0133"
   stroke-miterlimit="10"
   d="M762.39,303.61v-19.8h11.34   v-4.28l0,0v-17.06h-11.34v-23.33h11.34v-21.4h-11.34v-20.01h11.34v-0.65v-10.7h-11.34h-14.71h-30.39h-8.11h-30.39h-14.71h-11.34   v10.7l0,0v0.65h11.34v20.01h-11.34v21.4h11.34v23.33h-11.34v12.37l0,0v8.98h11.34v19.8H762.39z M684.66,237.42v-22.69h55.44v22.69   H684.66z" />
	
		<ellipse
   id="ellipse202"
   fill="none"
   stroke="#FF0000"
   stroke-width="0.0133"
   stroke-miterlimit="11.3386"
   cx="692.88"
   cy="208.49"
   rx="14.59"
   ry="1.89" />
	
		<ellipse
   id="ellipse203"
   fill="none"
   stroke="#FF0000"
   stroke-width="0.0133"
   stroke-miterlimit="11.3386"
   cx="692.88"
   cy="265.31"
   rx="14.59"
   ry="1.89" />
	
		<ellipse
   id="ellipse204"
   fill="none"
   stroke="#FF0000"
   stroke-width="0.0133"
   stroke-miterlimit="11.3386"
   cx="692.88"
   cy="274.87"
   rx="14.59"
   ry="1.89" />
	
		<ellipse
   id="ellipse205"
   fill="none"
   stroke="#FF0000"
   stroke-width="0.0133"
   stroke-miterlimit="11.3386"
   cx="732.9"
   cy="208.49"
   rx="14.59"
   ry="1.89" />
	
		<ellipse
   id="ellipse206"
   fill="none"
   stroke="#FF0000"
   stroke-width="0.0133"
   stroke-miterlimit="11.3386"
   cx="732.9"
   cy="265.31"
   rx="14.59"
   ry="1.89" />
	
		<ellipse
   id="ellipse207"
   fill="none"
   stroke="#FF0000"
   stroke-width="0.0133"
   stroke-miterlimit="11.3386"
   cx="732.9"
   cy="274.87"
   rx="14.59"
   ry="1.89" />
	
		<ellipse
   id="ellipse208"
   fill="none"
   stroke="#FF0000"
   stroke-width="0.0133"
   stroke-miterlimit="11.3386"
   cx="692.88"
   cy="254.63"
   rx="14.59"
   ry="1.89" />
	
		<ellipse
   id="ellipse209"
   fill="none"
   stroke="#FF0000"
   stroke-width="0.0133"
   stroke-miterlimit="11.3386"
   cx="732.9"
   cy="254.63"
   rx="14.59"
   ry="1.89" />
</g>
<path
   id="path209"
   fill="none"
   stroke="#FF0000"
   stroke-width="0.0133"
   stroke-miterlimit="10"
   d="M574.43,203.79v83.21  c0,8.33,6.76,15.09,15.09,15.09h4.13c8.33,0,15.09-6.76,15.09-15.09l0-83.21c0-8.33-6.76-15.09-15.09-15.09h-4.13  C581.18,188.7,574.43,195.45,574.43,203.79z" />
<path
   id="path210"
   fill="#A7A7A7"
   stroke="#000000"
   stroke-width="0.0667"
   stroke-miterlimit="10"
   d="M576.63,282.26  c0.02,0.12,0.1,0.26,0.22,0.28c2.35,0.04,4.71,0.02,7.04,0.02c0.34-0.12,0.28-0.67-0.08-0.71c-2.33,0.02-4.65-0.02-7,0.02  C576.73,281.92,576.63,282.12,576.63,282.26L576.63,282.26z" />
<path
   id="path211"
   fill="#A7A7A7"
   stroke="#000000"
   stroke-width="0.0667"
   stroke-miterlimit="10"
   d="M580.76,292.21  c0.04,0.22,0.38,0.32,0.59,0.16l4.85-4.85c0.26-0.38-0.16-0.79-0.55-0.49l-4.85,4.85C580.76,291.97,580.74,292.11,580.76,292.21  L580.76,292.21z" />
<path
   id="path212"
   fill="#A7A7A7"
   stroke="#000000"
   stroke-width="0.0667"
   stroke-miterlimit="10"
   d="M580.76,272.41  c0,0.04,0.02,0.1,0.08,0.12l4.85,4.85c0.36,0.26,0.79-0.14,0.51-0.51l-4.85-4.85C581.02,271.84,580.68,272.07,580.76,272.41  L580.76,272.41z" />
<path
   id="path213"
   fill="#A7A7A7"
   stroke="#000000"
   stroke-width="0.0667"
   stroke-miterlimit="10"
   d="M580.86,286.39  c0.02,0.1,0.16,0.22,0.26,0.24c0.14,0.02,0.26-0.04,0.38-0.1c0.99-0.36,2-0.87,2.99-1.23c0.38-0.24,0.12-0.81-0.32-0.67l-3.28,1.4  C580.86,286.08,580.84,286.28,580.86,286.39L580.86,286.39z" />
<path
   id="path214"
   fill="#A7A7A7"
   stroke="#000000"
   stroke-width="0.0667"
   stroke-miterlimit="10"
   d="M580.86,278.3  c0.02,0.14,0.12,0.2,0.24,0.24c0.97,0.49,2.1,0.81,3.07,1.27c0.47,0.14,0.71-0.44,0.32-0.67l-3.18-1.31  C581.02,277.75,580.82,277.97,580.86,278.3L580.86,278.3z" />
<path
   id="path215"
   fill="#A7A7A7"
   stroke="#000000"
   stroke-width="0.0667"
   stroke-miterlimit="10"
   d="M586.58,292.09  c0.04,0.26,0.4,0.36,0.61,0.2l1.4-3.28c0.12-0.47-0.44-0.69-0.69-0.28l-1.31,3.18C586.56,291.95,586.56,292.01,586.58,292.09  L586.58,292.09z" />
<path
   id="path216"
   fill="#A7A7A7"
   stroke="#000000"
   stroke-width="0.0667"
   stroke-miterlimit="10"
   d="M586.58,272.51l1.33,3.24  c0.24,0.36,0.79,0.14,0.67-0.28l-1.33-3.22C587.03,271.93,586.52,272.13,586.58,272.51L586.58,272.51z" />
<path
   id="path217"
   fill="#A7A7A7"
   stroke="#000000"
   stroke-width="0.0667"
   stroke-miterlimit="10"
   d="M590.63,296.3  c0.14,0.36,0.63,0.34,0.71-0.04l0-6.9c-0.04-0.4-0.67-0.4-0.71,0V296.3z" />
<path
   id="path218"
   fill="#A7A7A7"
   stroke="#000000"
   stroke-width="0.0667"
   stroke-miterlimit="10"
   d="M590.63,275.12  c0.1,0.36,0.67,0.34,0.71-0.04v-6.9c-0.08-0.4-0.63-0.4-0.71,0V275.12z" />
<path
   id="path219"
   fill="#A7A7A7"
   stroke="#000000"
   stroke-width="0.0667"
   stroke-miterlimit="10"
   d="M593.42,288.99l1.33,3.24  c0.26,0.28,0.73,0.08,0.67-0.32l-1.33-3.22C593.84,288.33,593.32,288.51,593.42,288.99z" />
<path
   id="path220"
   fill="#A7A7A7"
   stroke="#000000"
   stroke-width="0.0667"
   stroke-miterlimit="10"
   d="M593.38,275.69  c0.08,0.28,0.57,0.34,0.69,0.04l1.31-3.2c0.1-0.4-0.4-0.61-0.67-0.28l-1.33,3.2C593.38,275.5,593.38,275.61,593.38,275.69z" />
<path
   id="path221"
   fill="#A7A7A7"
   stroke="#000000"
   stroke-width="0.0667"
   stroke-miterlimit="10"
   d="M595.72,287.36  c0,0.08,0.04,0.14,0.1,0.2l4.85,4.85c0.34,0.24,0.75-0.14,0.55-0.49l-4.87-4.87C596.03,286.83,595.68,287.01,595.72,287.36  L595.72,287.36z" />
<path
   id="path222"
   fill="#A7A7A7"
   stroke="#000000"
   stroke-width="0.0667"
   stroke-miterlimit="10"
   d="M595.72,277.18  c0.04,0.28,0.38,0.38,0.61,0.2l4.85-4.85c0.24-0.34-0.16-0.75-0.51-0.51l-4.85,4.85C595.72,276.98,595.7,277.1,595.72,277.18z" />
<path
   id="path223"
   fill="#A7A7A7"
   stroke="#000000"
   stroke-width="0.0667"
   stroke-miterlimit="10"
   d="M597.28,285.09  c0.02,0.1,0.12,0.16,0.2,0.22l3.3,1.33c0.36-0.02,0.49-0.47,0.2-0.67l-3.2-1.33C597.46,284.55,597.22,284.75,597.28,285.09  L597.28,285.09z" />
<path
   id="path224"
   fill="#A7A7A7"
   stroke="#000000"
   stroke-width="0.0667"
   stroke-miterlimit="10"
   d="M597.28,279.59  c0.08,0.32,0.4,0.24,0.63,0.16c1.03-0.36,2.04-0.91,3.07-1.29c0.24-0.16,0.14-0.59-0.14-0.67c-0.16-0.02-0.67,0.2-0.85,0.28  c-0.85,0.34-1.68,0.71-2.53,1.05C597.28,279.25,597.26,279.39,597.28,279.59L597.28,279.59z" />
<path
   id="path225"
   fill="#A7A7A7"
   stroke="#000000"
   stroke-width="0.0667"
   stroke-miterlimit="10"
   d="M597.83,282.26  c0.02,0.14,0.14,0.32,0.32,0.32c2.33-0.02,4.65,0.02,7-0.02c0.34-0.14,0.26-0.67-0.12-0.69l-6.96,0.02  C597.93,281.92,597.81,282.1,597.83,282.26L597.83,282.26z" />
<path
   id="path226"
   fill="#A7A7A7"
   stroke="#000000"
   stroke-width="0.0667"
   stroke-miterlimit="10"
   d="M584.88,282.34  c-0.08-4.67,4.96-7.73,9.06-5.48c4,2.18,4.27,7.85,0.49,10.42C590.45,290.01,584.94,287.15,584.88,282.34z M585.61,282.64  c0.26,3.64,4.19,5.97,7.52,4.49c3.96-1.76,4.37-7.28,0.63-9.53C590,275.32,585.29,278.3,585.61,282.64z" />
<path
   id="path227"
   fill="#A7A7A7"
   stroke="#000000"
   stroke-width="0.0667"
   stroke-miterlimit="10"
   d="M595.72,287.36  c-0.04-0.34,0.32-0.55,0.59-0.34l4.87,4.87c0.22,0.34-0.16,0.73-0.55,0.49l-4.85-4.85C595.79,287.5,595.72,287.44,595.72,287.36  L595.72,287.36z" />
<path
   id="path228"
   fill="#A7A7A7"
   stroke="#000000"
   stroke-width="0.0667"
   stroke-miterlimit="10"
   d="M580.76,292.21  c-0.02-0.1,0-0.24,0.08-0.34l4.85-4.85c0.36-0.28,0.79,0.12,0.55,0.49l-4.85,4.85C581.14,292.55,580.82,292.45,580.76,292.21  L580.76,292.21z" />
<path
   id="path229"
   fill="#A7A7A7"
   stroke="#000000"
   stroke-width="0.0667"
   stroke-miterlimit="10"
   d="M580.76,272.41  c-0.08-0.36,0.26-0.59,0.59-0.38l4.85,4.85c0.26,0.36-0.14,0.79-0.51,0.51l-4.85-4.85C580.78,272.51,580.76,272.47,580.76,272.41  L580.76,272.41z" />
<path
   id="path230"
   fill="#A7A7A7"
   stroke="#000000"
   stroke-width="0.0667"
   stroke-miterlimit="10"
   d="M595.72,277.18  c-0.02-0.12,0.02-0.22,0.1-0.32l4.85-4.85c0.34-0.24,0.75,0.16,0.51,0.51l-4.85,4.85C596.11,277.59,595.74,277.49,595.72,277.18  L595.72,277.18z" />
<path
   id="path231"
   fill="#A7A7A7"
   stroke="#000000"
   stroke-width="0.0667"
   stroke-miterlimit="10"
   d="M590.63,296.3v-6.96  c0.04-0.4,0.67-0.4,0.71,0l0,6.9C591.27,296.64,590.79,296.68,590.63,296.3L590.63,296.3z" />
<path
   id="path232"
   fill="#A7A7A7"
   stroke="#000000"
   stroke-width="0.0667"
   stroke-miterlimit="10"
   d="M590.63,275.12v-6.96  c0.08-0.4,0.63-0.4,0.71,0v6.9C591.32,275.46,590.75,275.48,590.63,275.12L590.63,275.12z" />
<path
   id="path233"
   fill="#A7A7A7"
   stroke="#000000"
   stroke-width="0.0667"
   stroke-miterlimit="10"
   d="M576.63,282.26  c-0.02-0.14,0.1-0.32,0.22-0.36c2.33-0.08,4.65,0,7-0.02c0.36,0.04,0.4,0.59,0.08,0.71c-2.35,0.02-4.71,0.04-7.04-0.02  C576.75,282.5,576.67,282.36,576.63,282.26L576.63,282.26z" />
<path
   id="path234"
   fill="#A7A7A7"
   stroke="#000000"
   stroke-width="0.0667"
   stroke-miterlimit="10"
   d="M597.83,282.26  c-0.02-0.14,0.1-0.32,0.24-0.38l6.96-0.02c0.38,0.04,0.47,0.55,0.12,0.69c-2.33,0.08-4.65,0-7,0.02  C597.97,282.58,597.83,282.4,597.83,282.26L597.83,282.26z" />
<path
   id="path235"
   fill="#A7A7A7"
   stroke="#000000"
   stroke-width="0.0667"
   stroke-miterlimit="10"
   d="M586.58,292.09  c-0.02-0.08,0-0.14,0.02-0.22l1.31-3.18c0.22-0.38,0.79-0.16,0.69,0.28l-1.4,3.28C587.01,292.43,586.64,292.35,586.58,292.09  L586.58,292.09z" />
<path
   id="path236"
   fill="#A7A7A7"
   stroke="#000000"
   stroke-width="0.0667"
   stroke-miterlimit="10"
   d="M586.58,272.51  c-0.08-0.38,0.44-0.59,0.67-0.26l1.33,3.22c0.12,0.44-0.4,0.69-0.67,0.28L586.58,272.51z" />
<path
   id="path237"
   fill="#A7A7A7"
   stroke="#000000"
   stroke-width="0.0667"
   stroke-miterlimit="10"
   d="M593.38,275.69  c-0.02-0.08-0.02-0.16,0-0.26l1.33-3.2c0.24-0.32,0.75-0.1,0.67,0.28l-1.31,3.2C593.94,276.03,593.46,275.99,593.38,275.69  L593.38,275.69z" />
<path
   id="path238"
   fill="#A7A7A7"
   stroke="#000000"
   stroke-width="0.0667"
   stroke-miterlimit="10"
   d="M597.28,285.09  c-0.08-0.34,0.16-0.57,0.49-0.47l3.2,1.33c0.28,0.22,0.16,0.63-0.2,0.67l-3.3-1.33C597.4,285.25,597.32,285.19,597.28,285.09z" />
<path
   id="path239"
   fill="#A7A7A7"
   stroke="#000000"
   stroke-width="0.0667"
   stroke-miterlimit="10"
   d="M593.42,288.99  c-0.1-0.49,0.44-0.67,0.67-0.28l1.33,3.22c0.1,0.38-0.38,0.61-0.67,0.32L593.42,288.99z" />
<path
   id="path240"
   fill="#A7A7A7"
   stroke="#000000"
   stroke-width="0.0667"
   stroke-miterlimit="10"
   d="M580.86,286.39  c-0.02-0.12,0-0.28,0.08-0.38l3.28-1.4c0.44-0.14,0.71,0.4,0.32,0.67c-0.99,0.38-2,0.87-2.99,1.23c-0.12,0.04-0.24,0.12-0.38,0.1  C581.02,286.61,580.88,286.49,580.86,286.39L580.86,286.39z" />
<path
   id="path241"
   fill="#A7A7A7"
   stroke="#000000"
   stroke-width="0.0667"
   stroke-miterlimit="10"
   d="M580.86,278.3  c-0.08-0.32,0.14-0.55,0.47-0.47l3.18,1.31c0.4,0.24,0.14,0.81-0.32,0.67c-0.97-0.49-2.12-0.81-3.07-1.27  C581,278.46,580.9,278.44,580.86,278.3L580.86,278.3z" />
<path
   id="path242"
   fill="#A7A7A7"
   stroke="#000000"
   stroke-width="0.0667"
   stroke-miterlimit="10"
   d="M597.28,279.59  c-0.04-0.2,0-0.32,0.16-0.44c0.85-0.34,1.68-0.71,2.53-1.05c0.2-0.08,0.69-0.32,0.85-0.28c0.28,0.04,0.38,0.47,0.14,0.67  c-1.03,0.38-2.04,0.93-3.07,1.29C597.71,279.83,597.36,279.89,597.28,279.59L597.28,279.59z" />
<path
   id="path243"
   fill="none"
   stroke="#000000"
   stroke-width="0.1334"
   stroke-miterlimit="10"
   d="M606.38,223.28  c-5.87,0.04-11.49,2.06-16.02,5.78c-4.19,3.44-7.5,8.45-8.78,13.69c-0.38,1.62-0.73,3.34-0.81,5.18  c-0.32,9.04,3.7,17.43,11.16,22.65c4.27,2.97,9.24,4.47,14.44,4.55v5c-1.15-0.14-2.33-0.04-3.44-0.16  c-10.33-0.99-19.92-7.93-24.29-17.25c-9.63-20.61,4.71-44.11,27.32-44.54c0.12-0.02,0.38,0.1,0.38,0.16v4.93H606.38z" />
<path
   id="path244"
   fill="none"
   stroke="#000000"
   stroke-width="0.1334"
   stroke-miterlimit="10"
   d="M606.38,227.17v5.22  c-2.41-0.08-4.89,0.61-7.04,1.64c-4.39,2.1-7.85,6.29-8.98,10.96c-0.47,1.88-0.85,5.14-0.36,7.14c0.12,0.47,0.28,1.23,0.47,1.88  c1.92,6.88,8.76,12.11,15.92,12.07v5.22c-4.11-0.1-8.21-1.21-11.71-3.44c-10.82-6.9-13.31-21.94-5.54-32.14  C593.24,230.36,599.63,227.29,606.38,227.17L606.38,227.17z" />
<path
   id="path245"
   fill="none"
   stroke="#000000"
   stroke-width="0.1334"
   stroke-miterlimit="10"
   d="M606.38,236.15v2.22  c-4.96,1.9-8.31,7.1-7.5,12.44c0.63,4.29,3.6,7.62,7.5,9.34v2.16c-6.21-0.08-11.51-4.59-12.48-10.72  c-1.15-7.14,2.93-13.63,10.07-15.15C604.74,236.27,605.55,236.11,606.38,236.15z" />
<path
   id="path246"
   fill="none"
   stroke="#000000"
   stroke-width="0.1334"
   stroke-miterlimit="10"
   d="M604.46,198.93  c0.04,0.04,0.08,0.1,0.08,0.16c0,0.04-0.02,0.1-0.04,0.14c-0.02,0.04-0.04,0.08-0.04,0.12c-0.02,0.04-0.02,0.08-0.02,0.14l0.1,5.02  h-0.32l-0.1-5.24l-1.8,0.02v-0.36l1.92-0.02c0.02-0.04,0.08-0.08,0.12-0.08C604.36,198.87,604.4,198.89,604.46,198.93L604.46,198.93  z" />
<path
   id="path247"
   fill="none"
   stroke="#000000"
   stroke-width="0.1334"
   stroke-miterlimit="10"
   d="M601.53,204.09  c0.04,0.08,0.08,0.14,0.08,0.24c0,0.1-0.02,0.16-0.08,0.24c-0.04,0.08-0.1,0.1-0.16,0.1s-0.12-0.02-0.16-0.1  c-0.04-0.08-0.08-0.14-0.08-0.24c0-0.1,0.02-0.16,0.08-0.24c0.04-0.08,0.1-0.1,0.16-0.1C601.41,203.99,601.49,204.03,601.53,204.09z   M601.49,202.86h-0.32l-0.08-3.88h0.32L601.49,202.86z" />
<path
   id="path248"
   fill="none"
   stroke="#000000"
   stroke-width="0.1334"
   stroke-miterlimit="10"
   d="M599.47,197.36  c0.14,0.04,0.26,0.1,0.36,0.14l-0.1,0.36c-0.08-0.04-0.2-0.1-0.32-0.14c-0.12-0.04-0.26-0.04-0.38-0.04c-0.36,0-0.63,0.14-0.81,0.38  c-0.16,0.26-0.24,0.67-0.22,1.21v0.51c0.1-0.24,0.24-0.4,0.38-0.57c0.16-0.14,0.34-0.2,0.57-0.22c0.4,0,0.73,0.16,0.95,0.57  c0.2,0.36,0.32,0.87,0.32,1.5c0,0.57-0.1,1.03-0.28,1.4c-0.2,0.36-0.51,0.57-0.91,0.57c-0.22,0-0.44-0.04-0.59-0.2  c-0.16-0.12-0.28-0.32-0.4-0.55c0,0.16,0,0.32-0.04,0.47c-0.02,0.14-0.08,0.24-0.1,0.28l-0.26-0.14c0.04-0.1,0.08-0.22,0.1-0.34  c0.02-0.12,0.02-0.32,0.02-0.55l-0.04-2.81c0-0.61,0.1-1.07,0.34-1.4c0.24-0.32,0.57-0.49,0.97-0.49  C599.16,197.27,599.3,197.29,599.47,197.36L599.47,197.36z M598.47,199.62c-0.14,0.14-0.24,0.32-0.34,0.55  c-0.08,0.22-0.12,0.44-0.1,0.69v0.38c0,0.24,0.04,0.47,0.12,0.69c0.08,0.22,0.2,0.38,0.34,0.51c0.14,0.12,0.32,0.2,0.51,0.2  c0.32,0,0.55-0.16,0.69-0.47c0.14-0.3,0.22-0.67,0.2-1.09c0-0.49-0.08-0.87-0.22-1.19c-0.14-0.32-0.38-0.47-0.71-0.47  C598.8,199.42,598.64,199.48,598.47,199.62L598.47,199.62z" />
<path
   id="path249"
   fill="none"
   stroke="#000000"
   stroke-width="0.1334"
   stroke-miterlimit="10"
   d="M594.85,199.84l0.02,1.74  c0,0.38,0.08,0.67,0.2,0.85c0.12,0.2,0.32,0.26,0.57,0.26c0.16,0,0.32-0.08,0.47-0.22c0.14-0.14,0.24-0.32,0.32-0.55  c0.08-0.22,0.1-0.44,0.1-0.69l-0.04-2.18h0.32l0.1,5.87h-0.32l-0.04-2.63c-0.08,0.22-0.22,0.4-0.36,0.55  c-0.14,0.12-0.34,0.2-0.57,0.2c-0.32,0-0.57-0.12-0.73-0.36c-0.16-0.24-0.26-0.63-0.26-1.11l-0.02-1.7c0-0.12-0.02-0.24-0.04-0.36  c-0.02-0.12-0.04-0.22-0.08-0.28l0.26-0.14C594.79,199.28,594.85,199.54,594.85,199.84L594.85,199.84z" />
<path
   id="path250"
   fill="none"
   stroke="#000000"
   stroke-width="0.1334"
   stroke-miterlimit="10"
   d="M593.2,199.3  c0.1,0.16,0.16,0.4,0.16,0.71l0.04,2.63h0.49L593.8,203h-0.4l0.02,1.09l-0.28,0.2l-0.02-1.29l-0.71,0.02l0.04-0.36h0.63l-0.04-2.61  c0-0.24-0.02-0.38-0.08-0.49c-0.04-0.1-0.14-0.12-0.28-0.12c-0.14,0-0.26,0.04-0.36,0.12l-0.1-0.32c0.04-0.04,0.12-0.08,0.22-0.1  c0.1-0.02,0.16-0.04,0.24-0.04C592.93,199.05,593.09,199.14,593.2,199.3L593.2,199.3z" />
<path
   id="path251"
   fill="none"
   stroke="#000000"
   stroke-width="0.1334"
   stroke-miterlimit="10"
   d="M589.58,199.94l0.02,1.74  c0,0.38,0.08,0.67,0.2,0.85c0.12,0.2,0.32,0.26,0.57,0.26c0.16,0,0.32-0.08,0.47-0.22c0.14-0.14,0.24-0.32,0.32-0.55  c0.08-0.22,0.1-0.44,0.1-0.69l-0.04-2.18h0.32l0.1,5.87h-0.32l-0.04-2.63c-0.08,0.22-0.22,0.4-0.36,0.55  c-0.16,0.12-0.34,0.2-0.57,0.2c-0.32,0-0.57-0.12-0.73-0.36c-0.16-0.24-0.26-0.63-0.26-1.11l-0.02-1.7c0-0.12-0.02-0.24-0.04-0.36  c-0.02-0.12-0.04-0.22-0.08-0.28l0.26-0.14C589.51,199.38,589.58,199.64,589.58,199.94L589.58,199.94z" />
<path
   id="path252"
   fill="none"
   stroke="#000000"
   stroke-width="0.1334"
   stroke-miterlimit="10"
   d="M587.96,199.42  c0.2,0.16,0.34,0.4,0.44,0.73c0.1,0.28,0.14,0.63,0.14,0.99c0,0.36-0.02,0.71-0.12,0.99c-0.08,0.32-0.22,0.57-0.4,0.73  c-0.2,0.2-0.4,0.28-0.71,0.28c-0.3,0-0.55-0.08-0.73-0.26c-0.2-0.16-0.34-0.4-0.44-0.73c-0.1-0.28-0.14-0.63-0.14-0.99  c0-0.36,0.02-0.71,0.12-0.99c0.08-0.32,0.22-0.57,0.4-0.73c0.2-0.2,0.4-0.28,0.71-0.28C587.53,199.16,587.76,199.26,587.96,199.42  L587.96,199.42z M586.54,200.01c-0.16,0.32-0.24,0.71-0.22,1.19c0,0.49,0.1,0.87,0.26,1.19c0.16,0.28,0.4,0.44,0.71,0.44  c0.28,0,0.55-0.16,0.71-0.47c0.16-0.32,0.24-0.71,0.22-1.19c0-0.49-0.1-0.87-0.26-1.19c-0.16-0.28-0.4-0.44-0.71-0.44  S586.7,199.72,586.54,200.01L586.54,200.01z" />
<path
   id="path253"
   fill="none"
   stroke="#000000"
   stroke-width="0.1334"
   stroke-miterlimit="10"
   d="M584.92,199.6  c0.16,0.24,0.26,0.63,0.28,1.09l0.04,2.47h-0.32l-0.04-2.47c0-0.38-0.08-0.69-0.2-0.85c-0.12-0.16-0.32-0.26-0.57-0.26  c-0.16,0-0.34,0.08-0.47,0.2c-0.12,0.12-0.22,0.32-0.28,0.55c-0.08,0.22-0.1,0.44-0.1,0.69l0.04,2.18h-0.32l-0.04-2.97  c0-0.38-0.04-0.67-0.14-0.83l0.26-0.14c0.08,0.16,0.12,0.4,0.16,0.73c0.1-0.24,0.22-0.44,0.36-0.57c0.14-0.12,0.32-0.2,0.51-0.2  C584.5,199.2,584.76,199.34,584.92,199.6L584.92,199.6z" />
<path
   id="path254"
   fill="none"
   stroke="#000000"
   stroke-width="0.1334"
   stroke-miterlimit="10"
   d="M582.19,199.78l-0.2,0.32  c-0.1-0.14-0.24-0.26-0.4-0.34c-0.16-0.08-0.34-0.12-0.55-0.12c-0.47,0-0.71,0.22-0.69,0.61c0,0.14,0.02,0.24,0.08,0.34  c0.06,0.1,0.12,0.16,0.22,0.24c0.1,0.08,0.28,0.16,0.51,0.26c0.24,0.12,0.4,0.22,0.57,0.32c0.16,0.1,0.24,0.22,0.32,0.34  c0.08,0.14,0.12,0.32,0.12,0.51c0,0.28-0.08,0.55-0.24,0.73c-0.16,0.2-0.4,0.28-0.73,0.28c-0.2,0-0.36-0.02-0.51-0.1  c-0.14-0.08-0.28-0.14-0.38-0.24l0.12-0.34c0.12,0.12,0.24,0.2,0.36,0.24c0.12,0.04,0.26,0.08,0.4,0.08c0.22,0,0.38-0.08,0.49-0.16  c0.12-0.12,0.16-0.26,0.16-0.47c0-0.12-0.02-0.24-0.08-0.34c-0.04-0.1-0.12-0.16-0.2-0.22c-0.08-0.06-0.2-0.12-0.36-0.22l-0.16-0.1  c-0.26-0.14-0.47-0.26-0.59-0.34c-0.12-0.1-0.22-0.2-0.28-0.32c-0.08-0.12-0.1-0.28-0.1-0.51c0-0.32,0.08-0.57,0.24-0.73  c0.16-0.16,0.4-0.26,0.75-0.26C581.55,199.26,581.93,199.42,582.19,199.78L582.19,199.78z" />
<path
   id="path255"
   fill="none"
   stroke="#000000"
   stroke-width="0.1334"
   stroke-miterlimit="10"
   d="M578.76,199.58  c0.2,0.16,0.36,0.38,0.47,0.71c0.12,0.28,0.16,0.63,0.16,1.03c0,0.59-0.08,1.07-0.26,1.46c-0.2,0.38-0.51,0.61-0.95,0.61  c-0.32,0-0.59-0.1-0.79-0.32c-0.2-0.22-0.32-0.47-0.4-0.75c-0.08-0.28-0.12-0.57-0.12-0.83c0-0.1,0.02-0.2,0.04-0.24  c0.04-0.04,0.1-0.08,0.2-0.08l1.94-0.02c0-0.44-0.1-0.79-0.26-1.05c-0.16-0.26-0.44-0.38-0.75-0.38c-0.16,0-0.32,0.04-0.47,0.12  c-0.14,0.08-0.26,0.16-0.36,0.28l-0.16-0.28c0.12-0.14,0.26-0.26,0.44-0.36c0.16-0.1,0.36-0.14,0.57-0.14  C578.33,199.34,578.57,199.4,578.76,199.58L578.76,199.58z M577.2,201.54c0,0.4,0.1,0.75,0.26,1.05c0.16,0.28,0.4,0.4,0.73,0.4  c0.22,0,0.38-0.08,0.55-0.24c0.14-0.16,0.24-0.34,0.28-0.57c0.04-0.22,0.1-0.47,0.08-0.69L577.2,201.54z" />
<path
   id="path256"
   fill="none"
   stroke="#000000"
   stroke-width="0.1334"
   stroke-miterlimit="10"
   d="M575.6,203.97l0,82.88  c0,7.32,5.93,13.25,13.25,13.25h5.46c7.32,0,13.25-5.93,13.25-13.25v-82.88c0-7.32-5.93-13.25-13.25-13.25h-5.46  C581.55,190.72,575.6,196.65,575.6,203.97z" />
<path
   id="path257"
   fill="none"
   stroke="#FF0000"
   stroke-width="0.0133"
   stroke-miterlimit="10"
   d="M612.35,203.79v83.21  c0,8.33,6.76,15.09,15.09,15.09l4.13,0c8.33,0,15.09-6.76,15.09-15.09l0-83.21c0-8.33-6.76-15.09-15.09-15.09h-4.13  C619.1,188.7,612.35,195.45,612.35,203.79z" />
<path
   id="path258"
   fill="#A7A7A7"
   stroke="#000000"
   stroke-width="0.0667"
   stroke-miterlimit="10"
   d="M614.57,282.26  c0.02,0.12,0.1,0.26,0.22,0.28c2.35,0.04,4.71,0.02,7.04,0.02c0.34-0.12,0.28-0.67-0.08-0.71c-2.33,0.02-4.65-0.02-7,0.02  C614.65,281.92,614.55,282.12,614.57,282.26L614.57,282.26z" />
<path
   id="path259"
   fill="#A7A7A7"
   stroke="#000000"
   stroke-width="0.0667"
   stroke-miterlimit="10"
   d="M618.66,292.21  c0.04,0.22,0.38,0.32,0.59,0.16l4.85-4.85c0.26-0.38-0.16-0.79-0.55-0.49l-4.85,4.85C618.66,291.97,618.64,292.11,618.66,292.21  L618.66,292.21z" />
<path
   id="path260"
   fill="#A7A7A7"
   stroke="#000000"
   stroke-width="0.0667"
   stroke-miterlimit="10"
   d="M618.66,272.41  c0,0.04,0.02,0.1,0.08,0.12l4.85,4.85c0.36,0.26,0.75-0.14,0.51-0.51l-4.85-4.85C618.94,271.84,618.62,272.07,618.66,272.41  L618.66,272.41z" />
<path
   id="path261"
   fill="#A7A7A7"
   stroke="#000000"
   stroke-width="0.0667"
   stroke-miterlimit="10"
   d="M618.78,286.39  c0.02,0.1,0.16,0.22,0.26,0.24c0.14,0.02,0.26-0.04,0.38-0.1c0.99-0.36,2-0.87,2.99-1.23c0.38-0.24,0.12-0.81-0.32-0.67l-3.28,1.4  C618.76,286.08,618.76,286.28,618.78,286.39L618.78,286.39z" />
<path
   id="path262"
   fill="#A7A7A7"
   stroke="#000000"
   stroke-width="0.0667"
   stroke-miterlimit="10"
   d="M618.78,278.3  c0.02,0.14,0.12,0.2,0.24,0.24c0.97,0.49,2.1,0.81,3.07,1.27c0.47,0.14,0.71-0.44,0.32-0.67l-3.18-1.31  C618.94,277.75,618.72,277.97,618.78,278.3L618.78,278.3z" />
<path
   id="path263"
   fill="#A7A7A7"
   stroke="#000000"
   stroke-width="0.0667"
   stroke-miterlimit="10"
   d="M624.5,292.09  c0.04,0.26,0.4,0.36,0.61,0.2l1.4-3.28c0.12-0.47-0.44-0.69-0.69-0.28l-1.31,3.18C624.5,291.95,624.5,292.01,624.5,292.09  L624.5,292.09z" />
<path
   id="path264"
   fill="#A7A7A7"
   stroke="#000000"
   stroke-width="0.0667"
   stroke-miterlimit="10"
   d="M624.5,272.51l1.33,3.24  c0.24,0.36,0.79,0.14,0.67-0.28l-1.33-3.22C624.93,271.93,624.44,272.13,624.5,272.51L624.5,272.51z" />
<path
   id="path265"
   fill="#A7A7A7"
   stroke="#000000"
   stroke-width="0.0667"
   stroke-miterlimit="10"
   d="M628.57,296.3  c0.14,0.36,0.63,0.34,0.71-0.04v-6.9c-0.04-0.4-0.67-0.4-0.71,0V296.3z" />
<path
   id="path266"
   fill="#A7A7A7"
   stroke="#000000"
   stroke-width="0.0667"
   stroke-miterlimit="10"
   d="M628.57,275.12  c0.1,0.36,0.67,0.34,0.71-0.04v-6.9c-0.08-0.4-0.63-0.4-0.71,0V275.12z" />
<path
   id="path267"
   fill="#A7A7A7"
   stroke="#000000"
   stroke-width="0.0667"
   stroke-miterlimit="10"
   d="M631.32,288.99l1.33,3.24  c0.26,0.28,0.73,0.08,0.63-0.32l-1.33-3.22C631.77,288.33,631.22,288.51,631.32,288.99L631.32,288.99z" />
<path
   id="path268"
   fill="#A7A7A7"
   stroke="#000000"
   stroke-width="0.0667"
   stroke-miterlimit="10"
   d="M631.32,275.69  c0.08,0.28,0.57,0.34,0.69,0.04l1.31-3.2c0.1-0.4-0.4-0.61-0.67-0.28l-1.33,3.2C631.3,275.5,631.3,275.61,631.32,275.69  L631.32,275.69z" />
<path
   id="path269"
   fill="#A7A7A7"
   stroke="#000000"
   stroke-width="0.0667"
   stroke-miterlimit="10"
   d="M633.65,287.36  c0,0.08,0.04,0.14,0.1,0.2l4.85,4.85c0.34,0.24,0.75-0.14,0.55-0.49l-4.87-4.87C633.95,286.83,633.59,287.01,633.65,287.36  L633.65,287.36z" />
<path
   id="path270"
   fill="#A7A7A7"
   stroke="#000000"
   stroke-width="0.0667"
   stroke-miterlimit="10"
   d="M633.65,277.18  c0.04,0.28,0.38,0.38,0.61,0.2l4.85-4.85c0.24-0.34-0.16-0.75-0.51-0.51l-4.85,4.85C633.67,276.98,633.61,277.1,633.65,277.18  L633.65,277.18z" />
<path
   id="path271"
   fill="#A7A7A7"
   stroke="#000000"
   stroke-width="0.0667"
   stroke-miterlimit="10"
   d="M635.2,285.09  c0.02,0.1,0.12,0.16,0.2,0.22l3.3,1.33c0.36-0.02,0.49-0.47,0.2-0.67l-3.2-1.33C635.37,284.55,635.12,284.75,635.2,285.09z" />
<path
   id="path272"
   fill="#A7A7A7"
   stroke="#000000"
   stroke-width="0.0667"
   stroke-miterlimit="10"
   d="M635.2,279.59  c0.08,0.32,0.4,0.24,0.63,0.16c1.03-0.36,2.04-0.91,3.07-1.29c0.24-0.16,0.14-0.59-0.14-0.67c-0.16-0.02-0.67,0.2-0.85,0.28  c-0.85,0.34-1.68,0.71-2.53,1.05C635.2,279.25,635.16,279.39,635.2,279.59L635.2,279.59z" />
<path
   id="path273"
   fill="#A7A7A7"
   stroke="#000000"
   stroke-width="0.0667"
   stroke-miterlimit="10"
   d="M635.73,282.26  c0.02,0.14,0.14,0.32,0.32,0.32c2.33-0.02,4.65,0.02,7-0.02c0.34-0.14,0.26-0.67-0.12-0.69l-6.96,0.02  C635.83,281.92,635.71,282.1,635.73,282.26L635.73,282.26z" />
<path
   id="path274"
   fill="#A7A7A7"
   stroke="#000000"
   stroke-width="0.0667"
   stroke-miterlimit="10"
   d="M622.79,282.34  c-0.08-4.67,4.96-7.73,9.06-5.48c4,2.18,4.27,7.85,0.49,10.42C628.35,290.01,622.89,287.15,622.79,282.34z M623.55,282.64  c0.26,3.64,4.19,5.97,7.52,4.49c3.96-1.76,4.37-7.28,0.63-9.53C627.92,275.32,623.23,278.3,623.55,282.64z" />
<path
   id="path275"
   fill="#A7A7A7"
   stroke="#000000"
   stroke-width="0.0667"
   stroke-miterlimit="10"
   d="M633.65,287.36  c-0.04-0.34,0.32-0.55,0.59-0.34l4.87,4.87c0.22,0.34-0.16,0.73-0.55,0.49l-4.85-4.85C633.69,287.5,633.65,287.44,633.65,287.36  L633.65,287.36z" />
<path
   id="path276"
   fill="#A7A7A7"
   stroke="#000000"
   stroke-width="0.0667"
   stroke-miterlimit="10"
   d="M580.76,292.21  c-0.02-0.1,0-0.24,0.08-0.34l4.85-4.85c0.36-0.28,0.79,0.12,0.55,0.49l-4.85,4.85C581.14,292.55,580.82,292.45,580.76,292.21  L580.76,292.21z" />
<path
   id="path277"
   fill="#A7A7A7"
   stroke="#000000"
   stroke-width="0.0667"
   stroke-miterlimit="10"
   d="M618.66,272.41  c-0.08-0.36,0.26-0.59,0.59-0.38l4.85,4.85c0.26,0.36-0.14,0.79-0.51,0.51l-4.85-4.85C618.7,272.51,618.7,272.47,618.66,272.41  L618.66,272.41z" />
<path
   id="path278"
   fill="#A7A7A7"
   stroke="#000000"
   stroke-width="0.0667"
   stroke-miterlimit="10"
   d="M633.65,277.18  c-0.02-0.12,0.02-0.22,0.1-0.32l4.85-4.85c0.34-0.24,0.75,0.16,0.51,0.51l-4.85,4.85C634.03,277.59,633.69,277.49,633.65,277.18  L633.65,277.18z" />
<path
   id="path279"
   fill="#A7A7A7"
   stroke="#000000"
   stroke-width="0.0667"
   stroke-miterlimit="10"
   d="M628.57,296.3v-6.96  c0.04-0.4,0.67-0.4,0.71,0v6.9C629.2,296.64,628.69,296.68,628.57,296.3L628.57,296.3z" />
<path
   id="path280"
   fill="#A7A7A7"
   stroke="#000000"
   stroke-width="0.0667"
   stroke-miterlimit="10"
   d="M628.57,275.12v-6.96  c0.08-0.4,0.63-0.4,0.71,0v6.9C629.22,275.46,628.67,275.48,628.57,275.12L628.57,275.12z" />
<path
   id="path281"
   fill="#A7A7A7"
   stroke="#000000"
   stroke-width="0.0667"
   stroke-miterlimit="10"
   d="M614.57,282.26  c-0.02-0.14,0.1-0.32,0.22-0.36c2.33-0.08,4.65,0,7-0.02c0.36,0.04,0.4,0.59,0.08,0.71c-2.35,0.02-4.71,0.04-7.04-0.02  C614.68,282.5,614.57,282.36,614.57,282.26L614.57,282.26z" />
<path
   id="path282"
   fill="#A7A7A7"
   stroke="#000000"
   stroke-width="0.0667"
   stroke-miterlimit="10"
   d="M635.73,282.26  c-0.02-0.14,0.1-0.32,0.24-0.38l6.96-0.02c0.38,0.04,0.47,0.55,0.12,0.69c-2.33,0.08-4.65,0-7,0.02  C635.87,282.58,635.75,282.4,635.73,282.26L635.73,282.26z" />
<path
   id="path283"
   fill="#A7A7A7"
   stroke="#000000"
   stroke-width="0.0667"
   stroke-miterlimit="10"
   d="M624.5,292.09  c-0.02-0.08,0-0.14,0.02-0.22l1.31-3.18c0.22-0.38,0.79-0.16,0.69,0.28l-1.4,3.28C624.91,292.43,624.54,292.35,624.5,292.09z" />
<path
   id="path284"
   fill="#A7A7A7"
   stroke="#000000"
   stroke-width="0.0667"
   stroke-miterlimit="10"
   d="M624.5,272.51  c-0.08-0.38,0.44-0.59,0.67-0.26l1.33,3.22c0.12,0.44-0.4,0.69-0.67,0.28L624.5,272.51z" />
<path
   id="path285"
   fill="#A7A7A7"
   stroke="#000000"
   stroke-width="0.0667"
   stroke-miterlimit="10"
   d="M631.32,275.69  c-0.02-0.08-0.02-0.16,0-0.26l1.33-3.2c0.24-0.32,0.75-0.1,0.67,0.28l-1.31,3.2C631.89,276.03,631.36,275.99,631.32,275.69  L631.32,275.69z" />
<path
   id="path286"
   fill="#A7A7A7"
   stroke="#000000"
   stroke-width="0.0667"
   stroke-miterlimit="10"
   d="M635.2,285.09  c-0.08-0.34,0.16-0.57,0.49-0.47l3.2,1.33c0.28,0.22,0.16,0.63-0.2,0.67l-3.3-1.33C635.34,285.25,635.22,285.19,635.2,285.09z" />
<path
   id="path287"
   fill="#A7A7A7"
   stroke="#000000"
   stroke-width="0.0667"
   stroke-miterlimit="10"
   d="M631.32,288.99  c-0.1-0.49,0.44-0.67,0.67-0.28l1.33,3.22c0.1,0.38-0.38,0.61-0.63,0.32L631.32,288.99z" />
<path
   id="path288"
   fill="#A7A7A7"
   stroke="#000000"
   stroke-width="0.0667"
   stroke-miterlimit="10"
   d="M618.78,286.39  c-0.02-0.12,0-0.28,0.08-0.38l3.28-1.4c0.44-0.14,0.71,0.4,0.32,0.67c-0.99,0.38-2,0.87-2.99,1.23c-0.12,0.04-0.24,0.12-0.38,0.1  C618.96,286.61,618.82,286.49,618.78,286.39L618.78,286.39z" />
<path
   id="path289"
   fill="#A7A7A7"
   stroke="#000000"
   stroke-width="0.0667"
   stroke-miterlimit="10"
   d="M618.78,278.3  c-0.08-0.32,0.14-0.55,0.47-0.47l3.18,1.31c0.4,0.24,0.14,0.81-0.32,0.67c-0.97-0.49-2.12-0.81-3.07-1.27  C618.92,278.46,618.82,278.44,618.78,278.3L618.78,278.3z" />
<path
   id="path290"
   fill="#A7A7A7"
   stroke="#000000"
   stroke-width="0.0667"
   stroke-miterlimit="10"
   d="M635.2,279.59  c-0.04-0.2,0-0.32,0.16-0.44c0.85-0.34,1.68-0.71,2.53-1.05c0.2-0.08,0.69-0.32,0.85-0.28c0.28,0.04,0.38,0.47,0.14,0.67  c-1.03,0.38-2.04,0.93-3.07,1.29C635.61,279.83,635.26,279.89,635.2,279.59L635.2,279.59z" />
<path
   id="path291"
   fill="none"
   stroke="#000000"
   stroke-width="0.1334"
   stroke-miterlimit="10"
   d="M644.28,223.28  c-5.87,0.04-11.49,2.06-16.02,5.78c-4.19,3.44-7.5,8.45-8.78,13.69c-0.38,1.62-0.73,3.34-0.81,5.18  c-0.32,9.04,3.7,17.43,11.16,22.65c4.27,2.97,9.24,4.47,14.44,4.55v5c-1.15-0.14-2.33-0.04-3.44-0.16  c-10.33-0.99-19.92-7.93-24.29-17.25c-9.63-20.61,4.71-44.11,27.32-44.54c0.12-0.02,0.38,0.1,0.38,0.16v4.93H644.28z" />
<path
   id="path292"
   fill="none"
   stroke="#000000"
   stroke-width="0.1334"
   stroke-miterlimit="10"
   d="M644.28,227.17v5.22  c-2.41-0.08-4.89,0.61-7.04,1.64c-4.39,2.1-7.85,6.29-8.98,10.96c-0.47,1.88-0.85,5.14-0.36,7.14c0.12,0.47,0.28,1.23,0.47,1.88  c1.92,6.88,8.76,12.11,15.92,12.07v5.22c-4.11-0.1-8.21-1.21-11.71-3.44c-10.82-6.9-13.31-21.94-5.54-32.14  C631.16,230.36,637.53,227.29,644.28,227.17L644.28,227.17z" />
<path
   id="path293"
   fill="none"
   stroke="#000000"
   stroke-width="0.1334"
   stroke-miterlimit="10"
   d="M644.28,236.15v2.22  c-4.96,1.9-8.31,7.1-7.5,12.44c0.63,4.29,3.6,7.62,7.5,9.34v2.16c-6.21-0.08-11.51-4.59-12.48-10.72  c-1.15-7.14,2.93-13.63,10.07-15.15C642.67,236.27,643.5,236.11,644.28,236.15L644.28,236.15z" />
<path
   id="path294"
   fill="none"
   stroke="#000000"
   stroke-width="0.1334"
   stroke-miterlimit="10"
   d="M642.36,198.93  c0.04,0.04,0.08,0.1,0.08,0.16c0,0.04-0.02,0.1-0.04,0.14c-0.02,0.04-0.04,0.08-0.04,0.12c-0.02,0.04-0.02,0.08-0.02,0.14l0.1,5.02  h-0.32l-0.1-5.24l-1.8,0.02v-0.36l1.92-0.02c0.02-0.04,0.08-0.08,0.12-0.08C642.26,198.87,642.32,198.89,642.36,198.93  L642.36,198.93z" />
<path
   id="path295"
   fill="none"
   stroke="#000000"
   stroke-width="0.1334"
   stroke-miterlimit="10"
   d="M639.43,204.09  c0.04,0.08,0.08,0.14,0.08,0.24c0,0.1-0.02,0.16-0.08,0.24c-0.04,0.08-0.1,0.1-0.16,0.1s-0.12-0.02-0.16-0.1  c-0.04-0.08-0.08-0.14-0.08-0.24c0-0.1,0.02-0.16,0.08-0.24c0.04-0.08,0.1-0.1,0.16-0.1C639.35,203.99,639.39,204.03,639.43,204.09z   M639.41,202.86h-0.32l-0.08-3.88h0.32L639.41,202.86z" />
<path
   id="path296"
   fill="none"
   stroke="#000000"
   stroke-width="0.1334"
   stroke-miterlimit="10"
   d="M637.37,197.36  c0.14,0.04,0.26,0.1,0.36,0.14l-0.1,0.36c-0.08-0.04-0.2-0.1-0.32-0.14c-0.12-0.04-0.26-0.04-0.38-0.04c-0.36,0-0.63,0.14-0.81,0.38  c-0.16,0.26-0.24,0.67-0.22,1.21v0.51c0.1-0.24,0.24-0.4,0.38-0.57c0.16-0.14,0.34-0.2,0.57-0.22c0.4,0,0.73,0.16,0.95,0.57  c0.2,0.36,0.32,0.87,0.32,1.5c0,0.57-0.1,1.03-0.28,1.4c-0.2,0.36-0.51,0.57-0.91,0.57c-0.22,0-0.44-0.04-0.59-0.2  c-0.16-0.12-0.28-0.32-0.4-0.55c0,0.16,0,0.32-0.04,0.47c-0.02,0.14-0.08,0.24-0.1,0.28l-0.26-0.14c0.04-0.1,0.08-0.22,0.1-0.34  c0.02-0.12,0.02-0.32,0.02-0.55l-0.04-2.81c0-0.61,0.1-1.07,0.34-1.4c0.24-0.32,0.57-0.49,0.97-0.49  C637.08,197.27,637.23,197.29,637.37,197.36L637.37,197.36z M636.4,199.62c-0.14,0.14-0.24,0.32-0.34,0.55  c-0.08,0.22-0.12,0.44-0.1,0.69v0.38c0,0.24,0.04,0.47,0.12,0.69c0.08,0.22,0.2,0.38,0.34,0.51c0.14,0.12,0.32,0.2,0.51,0.2  c0.32,0,0.55-0.16,0.69-0.47c0.14-0.28,0.22-0.67,0.2-1.09c0-0.49-0.08-0.87-0.22-1.19c-0.14-0.32-0.38-0.47-0.71-0.47  C636.7,199.42,636.54,199.48,636.4,199.62L636.4,199.62z" />
<path
   id="path297"
   fill="none"
   stroke="#000000"
   stroke-width="0.1334"
   stroke-miterlimit="10"
   d="M632.78,199.84l0.02,1.74  c0,0.38,0.08,0.67,0.2,0.85c0.12,0.2,0.32,0.26,0.57,0.26c0.16,0,0.32-0.08,0.47-0.22c0.14-0.14,0.24-0.32,0.32-0.55  c0.08-0.22,0.1-0.44,0.1-0.69l-0.04-2.18h0.32l0.1,5.87h-0.32l-0.04-2.63c-0.08,0.22-0.22,0.4-0.36,0.55  c-0.14,0.12-0.34,0.2-0.57,0.2c-0.32,0-0.57-0.12-0.73-0.36c-0.16-0.24-0.26-0.63-0.26-1.11l-0.02-1.7c0-0.12-0.02-0.24-0.04-0.36  c-0.02-0.12-0.04-0.22-0.08-0.28l0.26-0.14C632.72,199.28,632.76,199.54,632.78,199.84L632.78,199.84z" />
<path
   id="path298"
   fill="none"
   stroke="#000000"
   stroke-width="0.1334"
   stroke-miterlimit="10"
   d="M631.12,199.3  c0.1,0.16,0.16,0.4,0.16,0.71l0.04,2.63h0.49l-0.08,0.36h-0.4l0.02,1.09l-0.28,0.2l-0.02-1.29l-0.71,0.02l0.04-0.36H631l-0.04-2.61  c0-0.24-0.02-0.38-0.08-0.49c-0.06-0.1-0.14-0.12-0.28-0.12c-0.14,0-0.26,0.04-0.36,0.12l-0.1-0.32c0.04-0.04,0.12-0.08,0.22-0.1  c0.1-0.02,0.16-0.04,0.24-0.04C630.85,199.05,631,199.14,631.12,199.3L631.12,199.3z" />
<path
   id="path299"
   fill="none"
   stroke="#000000"
   stroke-width="0.1334"
   stroke-miterlimit="10"
   d="M627.5,199.94l0.02,1.74  c0,0.38,0.08,0.67,0.2,0.85c0.12,0.18,0.32,0.26,0.57,0.26c0.16,0,0.32-0.08,0.47-0.22c0.14-0.14,0.24-0.32,0.32-0.55  c0.08-0.22,0.1-0.44,0.1-0.69l-0.04-2.18h0.32l0.1,5.87h-0.32l-0.04-2.63c-0.08,0.22-0.22,0.4-0.36,0.55  c-0.16,0.12-0.34,0.2-0.57,0.2c-0.32,0-0.57-0.12-0.73-0.36c-0.16-0.24-0.26-0.63-0.26-1.11l-0.02-1.7c0-0.12-0.02-0.24-0.04-0.36  c-0.02-0.12-0.04-0.22-0.08-0.28l0.26-0.14C627.44,199.38,627.5,199.64,627.5,199.94L627.5,199.94z" />
<path
   id="path300"
   fill="none"
   stroke="#000000"
   stroke-width="0.1334"
   stroke-miterlimit="10"
   d="M625.86,199.42  c0.2,0.16,0.34,0.4,0.45,0.73c0.1,0.28,0.14,0.63,0.14,0.99c0,0.36-0.02,0.71-0.12,0.99c-0.08,0.32-0.22,0.57-0.4,0.73  c-0.2,0.2-0.4,0.28-0.71,0.28c-0.28,0-0.55-0.08-0.73-0.26c-0.2-0.16-0.34-0.4-0.44-0.73c-0.1-0.28-0.14-0.63-0.14-0.99  c0-0.36,0.02-0.71,0.12-0.99c0.08-0.32,0.22-0.57,0.4-0.73c0.2-0.2,0.4-0.28,0.71-0.28C625.41,199.16,625.66,199.26,625.86,199.42  L625.86,199.42z M624.44,200.01c-0.16,0.32-0.24,0.71-0.22,1.19c0,0.49,0.1,0.87,0.26,1.19c0.16,0.28,0.4,0.44,0.71,0.44  s0.55-0.16,0.71-0.47c0.16-0.32,0.24-0.71,0.22-1.19c0-0.49-0.1-0.87-0.26-1.19c-0.16-0.28-0.4-0.44-0.71-0.44  C624.85,199.54,624.63,199.72,624.44,200.01L624.44,200.01z" />
<path
   id="path301"
   fill="none"
   stroke="#000000"
   stroke-width="0.1334"
   stroke-miterlimit="10"
   d="M622.87,199.6  c0.16,0.24,0.26,0.63,0.28,1.09l0.04,2.47h-0.32l-0.04-2.47c0-0.38-0.08-0.69-0.2-0.85c-0.12-0.16-0.32-0.26-0.57-0.26  c-0.16,0-0.34,0.08-0.47,0.2c-0.12,0.12-0.22,0.32-0.28,0.55c-0.08,0.22-0.1,0.44-0.1,0.69l0.04,2.18h-0.32l-0.04-2.97  c0-0.38-0.04-0.67-0.14-0.83l0.26-0.14c0.08,0.16,0.12,0.4,0.16,0.73c0.1-0.24,0.22-0.44,0.36-0.57c0.14-0.12,0.32-0.2,0.51-0.2  C622.42,199.2,622.66,199.34,622.87,199.6L622.87,199.6z" />
<path
   id="path302"
   fill="none"
   stroke="#000000"
   stroke-width="0.1334"
   stroke-miterlimit="10"
   d="M620.12,199.78l-0.2,0.32  c-0.1-0.14-0.24-0.26-0.4-0.34c-0.16-0.08-0.34-0.12-0.55-0.12c-0.47,0-0.71,0.22-0.69,0.61c0,0.14,0.02,0.24,0.08,0.34  c0.04,0.1,0.12,0.16,0.22,0.24c0.1,0.08,0.28,0.16,0.51,0.26c0.24,0.12,0.4,0.22,0.57,0.32c0.16,0.1,0.24,0.22,0.32,0.34  c0.08,0.14,0.12,0.32,0.12,0.51c0,0.28-0.08,0.55-0.24,0.73c-0.16,0.2-0.4,0.28-0.73,0.28c-0.2,0-0.36-0.02-0.51-0.1  c-0.14-0.08-0.28-0.14-0.38-0.24l0.12-0.34c0.12,0.12,0.24,0.2,0.36,0.24c0.12,0.04,0.26,0.08,0.4,0.08c0.22,0,0.38-0.08,0.49-0.16  c0.12-0.12,0.16-0.26,0.16-0.47c0-0.12-0.02-0.24-0.08-0.34c-0.04-0.1-0.12-0.16-0.2-0.22c-0.08-0.06-0.2-0.12-0.36-0.22l-0.16-0.1  c-0.26-0.14-0.47-0.26-0.59-0.34c-0.12-0.1-0.22-0.2-0.28-0.32c-0.08-0.12-0.1-0.28-0.1-0.51c0-0.32,0.08-0.57,0.24-0.73  c0.16-0.16,0.4-0.26,0.75-0.26C619.45,199.26,619.83,199.42,620.12,199.78L620.12,199.78z" />
<path
   id="path303"
   fill="none"
   stroke="#000000"
   stroke-width="0.1334"
   stroke-miterlimit="10"
   d="M616.7,199.58  c0.2,0.16,0.36,0.38,0.47,0.71c0.12,0.28,0.16,0.63,0.16,1.03c0,0.59-0.08,1.07-0.26,1.46c-0.2,0.38-0.51,0.61-0.95,0.61  c-0.32,0-0.59-0.1-0.79-0.32c-0.2-0.22-0.32-0.47-0.4-0.75c-0.08-0.28-0.12-0.57-0.12-0.83c0-0.1,0.02-0.2,0.04-0.24  c0.02-0.04,0.1-0.08,0.2-0.08l1.94-0.02c0-0.44-0.1-0.79-0.26-1.05c-0.16-0.26-0.44-0.38-0.75-0.38c-0.16,0-0.32,0.04-0.47,0.12  c-0.14,0.08-0.26,0.16-0.36,0.28l-0.16-0.28c0.12-0.14,0.26-0.26,0.44-0.36c0.16-0.1,0.36-0.14,0.57-0.14  C616.25,199.34,616.47,199.4,616.7,199.58L616.7,199.58z M615.14,201.54c0,0.4,0.1,0.75,0.26,1.05c0.16,0.28,0.4,0.4,0.73,0.4  c0.22,0,0.38-0.08,0.55-0.24c0.14-0.14,0.24-0.34,0.28-0.57s0.1-0.47,0.08-0.69L615.14,201.54z" />
<path
   id="path304"
   fill="none"
   stroke="#000000"
   stroke-width="0.1334"
   stroke-miterlimit="10"
   d="M613.52,203.97l0,82.88  c0,7.32,5.93,13.25,13.25,13.25h5.46c7.32,0,13.25-5.93,13.25-13.25v-82.88c0-7.32-5.93-13.25-13.25-13.25h-5.46  C619.45,190.72,613.52,196.65,613.52,203.97z" />
<rect
   id="rect304"
   x="621.03"
   y="54.27"
   fill="#0000FF"
   width="30.26"
   height="100.86" />
<rect
   id="rect305"
   x="771.91"
   y="54.71"
   fill="#0000FF"
   width="30.26"
   height="99.63" />
<ellipse
   id="ellipse305"
   fill="none"
   stroke="#FF0000"
   stroke-width="0.0133"
   stroke-linecap="round"
   stroke-miterlimit="11.3386"
   cx="601.37"
   cy="126.76"
   rx="7.96"
   ry="17.02" />
<path
   id="path305"
   fill="none"
   stroke="#FF0000"
   stroke-width="0.0133"
   stroke-linecap="round"
   stroke-miterlimit="11.3386"
   d="  M656.11,66.16L656.11,66.16c5.22,0,9.46,4.23,9.46,9.46v56.73c0,5.22-4.23,9.46-9.46,9.46l0,0c-5.22,0-9.46-4.23-9.46-9.46V75.61  C646.65,70.4,650.89,66.16,656.11,66.16z" />
<polygon
   id="polygon305"
   fill="none"
   stroke="#FF0000"
   stroke-width="0.0133"
   stroke-linecap="round"
   stroke-miterlimit="15.1267"
   points="  807.99,153.68 807.99,165.01 830.61,165.01 830.61,153.68 839.97,153.68 839.97,131.41 851.31,131.41 851.31,77.66 839.97,77.66   839.97,55.36 830.61,55.36 830.61,44.32 807.99,44.32 807.99,55.36 752.98,55.36 752.98,44.02 722.72,44.02 722.72,55.36   700.47,55.36 700.47,44.02 670.21,44.02 670.21,55.36 612.92,55.36 612.92,44.02 582.81,44.02 582.81,55.36 582.81,55.36   582.81,153.68 582.81,165.04 612.92,165.04 612.92,153.68 670.56,153.68 670.56,165.04 700.8,165.04 700.8,153.68 723.05,153.68   723.05,165.04 753.31,165.04 753.31,153.68 " />
<path
   id="path306"
   fill="#00FF00"
   d="M543.08,125.18V87.35H338.88v37.82H543.08z M343.17,91.6h196.64v20.5H343.17V91.6z" />
<line
   id="line306"
   fill="none"
   stroke="#03ffff"
   stroke-width="1.3341"
   stroke-miterlimit="10"
   x1="340.75729"
   y1="215.496"
   x2="529.8573"
   y2="215.496" />
<text
   id="text306"
   fill="#00ffff"
   font-family="MyriadPro-Regular"
   font-size="16.009px"
   x="413.30048"
   y="209.97751">5 cm</text>
<line
   id="line307"
   fill="none"
   stroke="#00ffff"
   stroke-width="1.3341"
   stroke-miterlimit="10"
   x1="340.75729"
   y1="257.29599"
   x2="532.86731"
   y2="257.29599" />
<text
   id="text307"
   fill="#00ffff"
   font-family="MyriadPro-Regular"
   font-size="16.009px"
   x="413.9726"
   y="254.24307">2 in</text>
<circle
   id="circle13"
   fill="#00FF00"
   cx="91.67"
   cy="157.95"
   r="5.67" />
<circle
   id="circle14"
   fill="#00FF00"
   cx="261.8"
   cy="157.95"
   r="5.67" />
<circle
   id="circle15"
   fill="#00FF00"
   cx="176.72"
   cy="157.95"
   r="5.67" />
<circle
   id="circle16"
   fill="#00FF00"
   cx="91.64"
   cy="50.88"
   r="5.67" />
<circle
   id="circle17"
   fill="#00FF00"
   cx="261.78"
   cy="50.88"
   r="5.67" />
<circle
   id="circle18"
   fill="#00FF00"
   cx="176.69"
   cy="50.88"
   r="5.67" />
<ellipse
   id="ellipse91"
   fill="none"
   stroke="#FF0000"
   stroke-width="0.0133"
   stroke-miterlimit="11.3386"
   cx="273.81"
   cy="120.31"
   rx="1.89"
   ry="11.62" />
<ellipse
   id="ellipse92"
   fill="none"
   stroke="#FF0000"
   stroke-width="0.0133"
   stroke-miterlimit="11.3386"
   cx="263.69"
   cy="120.31"
   rx="1.89"
   ry="11.62" />
<ellipse
   id="ellipse93"
   fill="none"
   stroke="#FF0000"
   stroke-width="0.0133"
   stroke-miterlimit="11.3386"
   cx="253.56"
   cy="120.31"
   rx="1.89"
   ry="11.62" />
<ellipse
   id="ellipse94"
   fill="none"
   stroke="#FF0000"
   stroke-width="0.0133"
   stroke-miterlimit="11.3386"
   cx="243.42"
   cy="120.31"
   rx="1.89"
   ry="11.62" />
<ellipse
   id="ellipse95"
   fill="none"
   stroke="#FF0000"
   stroke-width="0.0133"
   stroke-miterlimit="11.3386"
   cx="233.3"
   cy="120.31"
   rx="1.89"
   ry="11.62" />
<ellipse
   id="ellipse96"
   fill="none"
   stroke="#FF0000"
   stroke-width="0.0133"
   stroke-miterlimit="11.3386"
   cx="223.17"
   cy="120.31"
   rx="1.89"
   ry="11.62" />
<ellipse
   id="ellipse97"
   fill="none"
   stroke="#FF0000"
   stroke-width="0.0133"
   stroke-miterlimit="11.3386"
   cx="213.03"
   cy="120.31"
   rx="1.89"
   ry="11.62" />
<ellipse
   id="ellipse98"
   fill="none"
   stroke="#FF0000"
   stroke-width="0.0133"
   stroke-miterlimit="11.3386"
   cx="202.9"
   cy="120.31"
   rx="1.89"
   ry="11.62" />
<ellipse
   id="ellipse99"
   fill="none"
   stroke="#FF0000"
   stroke-width="0.0133"
   stroke-miterlimit="11.3386"
   cx="142.16"
   cy="120.31"
   rx="1.89"
   ry="11.62" />
<ellipse
   id="ellipse100"
   fill="none"
   stroke="#FF0000"
   stroke-width="0.0133"
   stroke-miterlimit="11.3386"
   cx="131.05"
   cy="120.31"
   rx="1.89"
   ry="11.62" />
<ellipse
   id="ellipse101"
   fill="none"
   stroke="#FF0000"
   stroke-width="0.0133"
   stroke-miterlimit="11.3386"
   cx="120.93"
   cy="120.31"
   rx="1.89"
   ry="11.62" />
<ellipse
   id="ellipse102"
   fill="none"
   stroke="#FF0000"
   stroke-width="0.0133"
   stroke-miterlimit="11.3386"
   cx="110.79"
   cy="120.31"
   rx="1.89"
   ry="11.62" />
<ellipse
   id="ellipse103"
   fill="none"
   stroke="#FF0000"
   stroke-width="0.0133"
   stroke-miterlimit="11.3386"
   cx="100.66"
   cy="120.31"
   rx="1.89"
   ry="11.62" />
<ellipse
   id="ellipse104"
   fill="none"
   stroke="#FF0000"
   stroke-width="0.0133"
   stroke-miterlimit="11.3386"
   cx="90.53"
   cy="120.31"
   rx="1.89"
   ry="11.62" />
<ellipse
   id="ellipse105"
   fill="none"
   stroke="#FF0000"
   stroke-width="0.0133"
   stroke-miterlimit="11.3386"
   cx="80.41"
   cy="120.31"
   rx="1.89"
   ry="11.62" />
<ellipse
   id="ellipse106"
   fill="none"
   stroke="#FF0000"
   stroke-width="0.0133"
   stroke-miterlimit="11.3386"
   cx="273.81"
   cy="88.77"
   rx="1.89"
   ry="11.62" />
<ellipse
   id="ellipse107"
   fill="none"
   stroke="#FF0000"
   stroke-width="0.0133"
   stroke-miterlimit="11.3386"
   cx="263.69"
   cy="88.77"
   rx="1.89"
   ry="11.62" />
<ellipse
   id="ellipse108"
   fill="none"
   stroke="#FF0000"
   stroke-width="0.0133"
   stroke-miterlimit="11.3386"
   cx="253.56"
   cy="88.77"
   rx="1.89"
   ry="11.62" />
<ellipse
   id="ellipse109"
   fill="none"
   stroke="#FF0000"
   stroke-width="0.0133"
   stroke-miterlimit="11.3386"
   cx="243.42"
   cy="88.77"
   rx="1.89"
   ry="11.62" />
<ellipse
   id="ellipse110"
   fill="none"
   stroke="#FF0000"
   stroke-width="0.0133"
   stroke-miterlimit="11.3386"
   cx="233.3"
   cy="88.77"
   rx="1.89"
   ry="11.62" />
<ellipse
   id="ellipse111"
   fill="none"
   stroke="#FF0000"
   stroke-width="0.0133"
   stroke-miterlimit="11.3386"
   cx="223.17"
   cy="88.77"
   rx="1.89"
   ry="11.62" />
<ellipse
   id="ellipse112"
   fill="none"
   stroke="#FF0000"
   stroke-width="0.0133"
   stroke-miterlimit="11.3386"
   cx="213.03"
   cy="88.77"
   rx="1.89"
   ry="11.62" />
<ellipse
   id="ellipse113"
   fill="none"
   stroke="#FF0000"
   stroke-width="0.0133"
   stroke-miterlimit="11.3386"
   cx="202.9"
   cy="88.77"
   rx="1.89"
   ry="11.62" />
<ellipse
   id="ellipse114"
   fill="none"
   stroke="#FF0000"
   stroke-width="0.0133"
   stroke-miterlimit="11.3386"
   cx="142.16"
   cy="88.77"
   rx="1.89"
   ry="11.62" />
<ellipse
   id="ellipse115"
   fill="none"
   stroke="#FF0000"
   stroke-width="0.0133"
   stroke-miterlimit="11.3386"
   cx="131.05"
   cy="88.77"
   rx="1.89"
   ry="11.62" />
<ellipse
   id="ellipse116"
   fill="none"
   stroke="#FF0000"
   stroke-width="0.0133"
   stroke-miterlimit="11.3386"
   cx="120.93"
   cy="88.77"
   rx="1.89"
   ry="11.62" />
<ellipse
   id="ellipse117"
   fill="none"
   stroke="#FF0000"
   stroke-width="0.0133"
   stroke-miterlimit="11.3386"
   cx="110.79"
   cy="88.77"
   rx="1.89"
   ry="11.62" />
<ellipse
   id="ellipse118"
   fill="none"
   stroke="#FF0000"
   stroke-width="0.0133"
   stroke-miterlimit="11.3386"
   cx="100.66"
   cy="88.77"
   rx="1.89"
   ry="11.62" />
<ellipse
   id="ellipse119"
   fill="none"
   stroke="#FF0000"
   stroke-width="0.0133"
   stroke-miterlimit="11.3386"
   cx="90.53"
   cy="88.77"
   rx="1.89"
   ry="11.62" />
<ellipse
   id="ellipse120"
   fill="none"
   stroke="#FF0000"
   stroke-width="0.0133"
   stroke-miterlimit="11.3386"
   cx="80.41"
   cy="88.77"
   rx="1.89"
   ry="11.62" />
<circle
   id="circle307"
   fill="none"
   stroke="#FF0000"
   stroke-width="0.0133"
   stroke-miterlimit="10"
   cx="176.73"
   cy="104.54"
   r="9.46" />
<g
   id="g328"
   transform="matrix(0,1.3340856,-1.3340856,0,1129.6139,-56.633663)">
	
		<ellipse
   id="ellipse327"
   transform="matrix(2.535182e-06 1 -1 2.535182e-06 930.3994 400.9785)"
   fill="none"
   stroke="#FF0000"
   stroke-width="0.0133"
   stroke-linecap="round"
   stroke-miterlimit="15.1267"
   cx="264.71"
   cy="665.69"
   rx="12.76"
   ry="5.97" />
	<polygon
   id="polygon327"
   fill="none"
   stroke="#FF0000"
   stroke-width="0.0133"
   stroke-miterlimit="13.3409"
   points="278.62,645.53    278.62,637.07 256.05,637.07 256.05,645.53 249.86,645.53 249.86,719.23 256.05,719.23 256.05,727.69 278.62,727.69 278.62,719.23    278.62,717.09 278.62,648.88  " />
</g>
<path
   id="path328"
   fill="#0000FF"
   d="M174.2,251.66v-13.35c0-1.51,1.23-2.73,2.73-2.73h70.17c1.51,0,2.73,1.23,2.73,2.73v13.35  c0,1.51-1.23,2.73-2.73,2.73h-70.17C175.42,254.4,174.2,253.17,174.2,251.66z" />
<rect
   id="rect328"
   x="166.01"
   y="238.04"
   fill="none"
   stroke="#FF0000"
   stroke-width="0.0133"
   stroke-miterlimit="10"
   width="98.32"
   height="22.13" />
<polygon
   id="polygon328"
   fill="none"
   stroke="#FF0000"
   stroke-width="0.0133"
   stroke-linecap="round"
   stroke-miterlimit="15.1267"
   points="  170.05,186.9 170.05,196.27 159,196.27 159,218.88 170.05,218.88 170.05,224.75 268.38,224.75 268.38,218.88 279.72,218.88   279.72,196.27 268.38,196.27 268.38,186.9 246.09,186.9 246.09,175.59 192.34,175.59 192.34,186.9 " />
<ellipse
   id="ellipse328"
   fill="none"
   stroke="#FF0000"
   stroke-width="0.0133"
   stroke-miterlimit="11.3386"
   cx="219.35"
   cy="197.99"
   rx="18.9"
   ry="1.89" />
<ellipse
   id="ellipse329"
   fill="none"
   stroke="#FF0000"
   stroke-width="0.0133"
   stroke-miterlimit="11.3386"
   cx="219.35"
   cy="206.78"
   rx="18.9"
   ry="1.89" />
<ellipse
   id="ellipse330"
   fill="none"
   stroke="#FF0000"
   stroke-width="0.0133"
   stroke-miterlimit="11.3386"
   cx="219.35"
   cy="215.57"
   rx="18.9"
   ry="1.89" />
<ellipse
   id="ellipse331"
   fill="none"
   stroke="#FF0000"
   stroke-width="0.0133"
   stroke-miterlimit="11.3386"
   cx="198.81"
   cy="304.22"
   rx="18.9"
   ry="1.89" />
<ellipse
   id="ellipse332"
   fill="none"
   stroke="#FF0000"
   stroke-width="0.0133"
   stroke-miterlimit="11.3386"
   cx="198.81"
   cy="290.88"
   rx="18.9"
   ry="1.89" />
<circle
   id="circle2_00000133499627416844568160000013359693830752690872_"
   fill="#00FF00"
   stroke="#CECECE"
   stroke-width="0.0667"
   stroke-miterlimit="10"
   cx="713.26"
   cy="297.94"
   r="5.67" />
<circle
   id="circle2_00000052800866924367546140000011345321580091482532_"
   fill="#00FF00"
   cx="713.26"
   cy="297.94"
   r="5.67" />
<circle
   id="circle2_00000085938894503730021990000016656165115012691119_"
   fill="#00FF00"
   cx="713.26"
   cy="192.04"
   r="5.67" />
<polygon
   fill="none"
   stroke="#FF0000"
   stroke-width="0.0133"
   stroke-linecap="round"
   stroke-miterlimit="15.1267"
   points="  301.53,98.85 301.53,44.02 60.38,44.02 51.94,44.02 51.94,55.38 51.94,70.09 51.94,96.84 51.94,98.85 54.17,98.85 54.17,110.21   51.94,110.21 51.94,111.55 51.94,138.98 51.94,153.7 51.94,165.04 60.38,165.04 301.53,165.04 301.53,110.21 299.31,110.21   299.31,98.85 "
   id="polygon1" />
<polygon
   fill="none"
   stroke="#FF0000"
   stroke-width="0.0133"
   stroke-linecap="round"
   stroke-miterlimit="11.3386"
   points="  561.41,44.02 312.97,44.02 312.97,98.85 315.2,98.85 315.2,110.21 312.97,110.21 312.97,165.04 561.41,165.04 570.11,165.04   570.11,153.7 570.11,138.98 570.11,112.23 570.11,110.21 567.88,110.21 567.88,98.85 570.11,98.85 570.11,97.52 570.11,70.09   570.11,55.36 570.11,44.02 "
   id="polygon2" />
<g
   id="g3">
	<g
   id="g2">
		
			<rect
   id="rect18"
   x="783.02"
   y="184.9"
   transform="matrix(-1 -1.224647e-16 1.224647e-16 -1 1694.6139 490.8204)"
   fill="none"
   stroke="#FF0000"
   stroke-width="0.0133"
   stroke-miterlimit="10"
   width="128.58"
   height="121.01" />
		
			<ellipse
   id="ellipse185"
   fill="none"
   stroke="#FF0000"
   stroke-width="0.0133"
   stroke-miterlimit="11.3386"
   cx="812.37"
   cy="268.92"
   rx="1.89"
   ry="15.76" />
		
			<ellipse
   id="ellipse186"
   fill="none"
   stroke="#FF0000"
   stroke-width="0.0133"
   stroke-miterlimit="11.3386"
   cx="822.51"
   cy="268.92"
   rx="1.89"
   ry="15.76" />
		
			<ellipse
   id="ellipse187"
   fill="none"
   stroke="#FF0000"
   stroke-width="0.0133"
   stroke-miterlimit="11.3386"
   cx="832.06"
   cy="268.92"
   rx="1.89"
   ry="15.76" />
		
			<ellipse
   id="ellipse188"
   fill="none"
   stroke="#FF0000"
   stroke-width="0.0133"
   stroke-miterlimit="11.3386"
   cx="842.18"
   cy="268.92"
   rx="1.89"
   ry="15.76" />
		
			<ellipse
   id="ellipse189"
   fill="none"
   stroke="#FF0000"
   stroke-width="0.0133"
   stroke-miterlimit="11.3386"
   cx="852.32"
   cy="268.92"
   rx="1.89"
   ry="15.76" />
		
			<ellipse
   id="ellipse190"
   fill="none"
   stroke="#FF0000"
   stroke-width="0.0133"
   stroke-miterlimit="11.3386"
   cx="862.45"
   cy="268.92"
   rx="1.89"
   ry="15.76" />
		
			<ellipse
   id="ellipse191"
   fill="none"
   stroke="#FF0000"
   stroke-width="0.0133"
   stroke-miterlimit="11.3386"
   cx="872.57"
   cy="268.92"
   rx="1.89"
   ry="15.76" />
		
			<ellipse
   id="ellipse192"
   fill="none"
   stroke="#FF0000"
   stroke-width="0.0133"
   stroke-miterlimit="11.3386"
   cx="883.25"
   cy="268.92"
   rx="1.89"
   ry="15.76" />
		
			<ellipse
   id="ellipse193"
   fill="none"
   stroke="#FF0000"
   stroke-width="0.0133"
   stroke-miterlimit="11.3386"
   cx="812.37"
   cy="219.47"
   rx="1.89"
   ry="16.8" />
		
			<ellipse
   id="ellipse194"
   fill="none"
   stroke="#FF0000"
   stroke-width="0.0133"
   stroke-miterlimit="11.3386"
   cx="822.51"
   cy="219.47"
   rx="1.89"
   ry="16.8" />
		
			<ellipse
   id="ellipse195"
   fill="none"
   stroke="#FF0000"
   stroke-width="0.0133"
   stroke-miterlimit="11.3386"
   cx="832.06"
   cy="219.47"
   rx="1.89"
   ry="16.8" />
		
			<ellipse
   id="ellipse196"
   fill="none"
   stroke="#FF0000"
   stroke-width="0.0133"
   stroke-miterlimit="11.3386"
   cx="842.18"
   cy="219.47"
   rx="1.89"
   ry="16.8" />
		
			<ellipse
   id="ellipse197"
   fill="none"
   stroke="#FF0000"
   stroke-width="0.0133"
   stroke-miterlimit="11.3386"
   cx="852.32"
   cy="219.47"
   rx="1.89"
   ry="16.8" />
		
			<ellipse
   id="ellipse198"
   fill="none"
   stroke="#FF0000"
   stroke-width="0.0133"
   stroke-miterlimit="11.3386"
   cx="862.45"
   cy="219.47"
   rx="1.89"
   ry="16.8" />
		
			<ellipse
   id="ellipse199"
   fill="none"
   stroke="#FF0000"
   stroke-width="0.0133"
   stroke-miterlimit="11.3386"
   cx="872.57"
   cy="219.47"
   rx="1.89"
   ry="16.8" />
		
			<ellipse
   id="ellipse200"
   fill="none"
   stroke="#FF0000"
   stroke-width="0.0133"
   stroke-miterlimit="11.3386"
   cx="883.25"
   cy="219.47"
   rx="1.89"
   ry="16.8" />
	</g>
	<circle
   id="circle2_00000078041206709906866270000015814222896671525506_"
   fill="#00FF00"
   cx="905.93"
   cy="245.38"
   r="5.67" />
	<circle
   id="circle2_00000084505132681724208490000012464387246911624874_"
   fill="#00FF00"
   cx="788.69"
   cy="245.38"
   r="5.67" />
	<circle
   id="circle5_00000062882195684487386740000006203084857119483543_"
   fill="#00FF00"
   cx="883.11"
   cy="299.72"
   r="5.67" />
	<circle
   id="circle5_00000127012632294312069380000008608409775379002242_"
   fill="#00FF00"
   cx="846.4"
   cy="299.47"
   r="5.67" />
	<circle
   id="circle5_00000072247992976878606430000015364099304407118233_"
   fill="#00FF00"
   cx="794.85"
   cy="299.47"
   r="5.67" />
	<circle
   id="circle5_00000165954910722798111460000017760179547364352648_"
   fill="#00FF00"
   cx="883.11"
   cy="191.29"
   r="5.67" />
	<circle
   id="circle5_00000132804656034256226500000017326969419814414267_"
   fill="#00FF00"
   cx="846.4"
   cy="191.05"
   r="5.67" />
	<circle
   id="circle5_00000133515541741386887160000016599515247040060603_"
   fill="#00FF00"
   cx="794.85"
   cy="191.05"
   r="5.67" />
</g>
<polygon
   fill="none"
   stroke="#FF0000"
   stroke-width="0.0133"
   stroke-linecap="round"
   stroke-miterlimit="15.1267"
   points="  560.38,190.97 560.38,187.15 521.65,187.15 521.65,189.59 510.31,189.59 510.31,187.15 436.63,187.15 436.63,189.59 425.29,189.59   425.29,187.15 351.45,187.15 351.45,189.59 340.1,189.59 340.1,187.15 288.28,187.15 288.28,206.92 299.63,206.92 299.63,228.27   288.28,228.27 288.28,251.6 299.63,251.6 299.63,273 288.28,273 288.28,293.04 340.1,293.04 340.1,290.81 351.45,290.81   351.45,293.04 425.29,293.04 425.29,290.81 436.63,290.81 436.63,293.04 510.31,293.04 510.31,290.81 521.65,290.81 521.65,293.04   560.38,293.04 560.38,290.57 557.94,290.57 557.94,279.23 560.38,279.23 560.38,276.01 526.67,276.01 526.67,253.32 560.38,253.32   560.38,239.02 557.94,239.02 557.94,227.68 560.38,227.68 560.38,217.38 488.54,217.38 488.54,206.03 560.38,206.03 560.38,202.31   557.94,202.31 557.94,190.97 "
   id="polygon3" />
</svg>
